<?xml version="1.0" encoding="utf-8" ?>
<svg baseProfile="full" height="27.75" version="1.1" width="27.6" xmlns="http://www.w3.org/2000/svg" xmlns:ev="http://www.w3.org/2001/xml-events" xmlns:xlink="http://www.w3.org/1999/xlink"><defs /><g id="pads"><rect fill="#D4AA00" height="1.65" stroke="black" stroke-width="0.05" width="0.42" x="10.0" y="10" /><rect fill="#D4AA00" height="1.65" stroke="black" stroke-width="0.05" width="0.42" x="10.65" y="10" /><rect fill="#D4AA00" height="1.65" stroke="black" stroke-width="0.05" width="0.42" x="11.3" y="10" /><rect fill="#D4AA00" height="1.65" stroke="black" stroke-width="0.05" width="0.42" x="11.95" y="10" /><rect fill="#D4AA00" height="1.65" stroke="black" stroke-width="0.05" width="0.42" x="12.6" y="10" /><rect fill="#D4AA00" height="1.65" stroke="black" stroke-width="0.05" width="0.42" x="13.25" y="10" /><rect fill="#D4AA00" height="1.65" stroke="black" stroke-width="0.05" width="0.42" x="13.9" y="10" /><rect fill="#D4AA00" height="1.65" stroke="black" stroke-width="0.05" width="0.42" x="14.55" y="10" /><rect fill="#D4AA00" height="1.65" stroke="black" stroke-width="0.05" width="0.42" x="15.2" y="10" /><rect fill="#D4AA00" height="1.65" stroke="black" stroke-width="0.05" width="0.42" x="15.850000000000001" y="10" /><rect fill="#D4AA00" height="1.65" stroke="black" stroke-width="0.05" width="0.42" x="16.5" y="10" /><rect fill="#D4AA00" height="1.65" stroke="black" stroke-width="0.05" width="0.42" x="17.15" y="10" /><rect fill="#D4AA00" height="1.65" stroke="black" stroke-width="0.05" width="0.42" x="10.0" y="16.1" /><rect fill="#D4AA00" height="1.65" stroke="black" stroke-width="0.05" width="0.42" x="10.65" y="16.1" /><rect fill="#D4AA00" height="1.65" stroke="black" stroke-width="0.05" width="0.42" x="11.3" y="16.1" /><rect fill="#D4AA00" height="1.65" stroke="black" stroke-width="0.05" width="0.42" x="11.95" y="16.1" /><rect fill="#D4AA00" height="1.65" stroke="black" stroke-width="0.05" width="0.42" x="12.6" y="16.1" /><rect fill="#D4AA00" height="1.65" stroke="black" stroke-width="0.05" width="0.42" x="13.25" y="16.1" /><rect fill="#D4AA00" height="1.65" stroke="black" stroke-width="0.05" width="0.42" x="13.9" y="16.1" /><rect fill="#D4AA00" height="1.65" stroke="black" stroke-width="0.05" width="0.42" x="14.55" y="16.1" /><rect fill="#D4AA00" height="1.65" stroke="black" stroke-width="0.05" width="0.42" x="15.2" y="16.1" /><rect fill="#D4AA00" height="1.65" stroke="black" stroke-width="0.05" width="0.42" x="15.850000000000001" y="16.1" /><rect fill="#D4AA00" height="1.65" stroke="black" stroke-width="0.05" width="0.42" x="16.5" y="16.1" /><rect fill="#D4AA00" height="1.65" stroke="black" stroke-width="0.05" width="0.42" x="17.15" y="16.1" /><rect fill="#D4AA00" height="3.0" stroke="black" stroke-width="0.05" width="4.32" x="11.64" y="12.375" /></g><g id="part"><rect fill="#999999" height="1.0" stroke="black" stroke-width="0.05" width="0.25" x="10.085" y="10.65" /><rect fill="#999999" height="1.0" stroke="black" stroke-width="0.05" width="0.25" x="10.735000000000001" y="10.65" /><rect fill="#999999" height="1.0" stroke="black" stroke-width="0.05" width="0.25" x="11.385000000000002" y="10.65" /><rect fill="#999999" height="1.0" stroke="black" stroke-width="0.05" width="0.25" x="12.035" y="10.65" /><rect fill="#999999" height="1.0" stroke="black" stroke-width="0.05" width="0.25" x="12.685" y="10.65" /><rect fill="#999999" height="1.0" stroke="black" stroke-width="0.05" width="0.25" x="13.335" y="10.65" /><rect fill="#999999" height="1.0" stroke="black" stroke-width="0.05" width="0.25" x="13.985000000000001" y="10.65" /><rect fill="#999999" height="1.0" stroke="black" stroke-width="0.05" width="0.25" x="14.635000000000002" y="10.65" /><rect fill="#999999" height="1.0" stroke="black" stroke-width="0.05" width="0.25" x="15.285" y="10.65" /><rect fill="#999999" height="1.0" stroke="black" stroke-width="0.05" width="0.25" x="15.935000000000002" y="10.65" /><rect fill="#999999" height="1.0" stroke="black" stroke-width="0.05" width="0.25" x="16.585" y="10.65" /><rect fill="#999999" height="1.0" stroke="black" stroke-width="0.05" width="0.25" x="17.235" y="10.65" /><rect fill="#999999" height="1.0" stroke="black" stroke-width="0.05" width="0.25" x="10.085" y="16.1" /><rect fill="#999999" height="1.0" stroke="black" stroke-width="0.05" width="0.25" x="10.735000000000001" y="16.1" /><rect fill="#999999" height="1.0" stroke="black" stroke-width="0.05" width="0.25" x="11.385000000000002" y="16.1" /><rect fill="#999999" height="1.0" stroke="black" stroke-width="0.05" width="0.25" x="12.035" y="16.1" /><rect fill="#999999" height="1.0" stroke="black" stroke-width="0.05" width="0.25" x="12.685" y="16.1" /><rect fill="#999999" height="1.0" stroke="black" stroke-width="0.05" width="0.25" x="13.335" y="16.1" /><rect fill="#999999" height="1.0" stroke="black" stroke-width="0.05" width="0.25" x="13.985000000000001" y="16.1" /><rect fill="#999999" height="1.0" stroke="black" stroke-width="0.05" width="0.25" x="14.635000000000002" y="16.1" /><rect fill="#999999" height="1.0" stroke="black" stroke-width="0.05" width="0.25" x="15.285" y="16.1" /><rect fill="#999999" height="1.0" stroke="black" stroke-width="0.05" width="0.25" x="15.935000000000002" y="16.1" /><rect fill="#999999" height="1.0" stroke="black" stroke-width="0.05" width="0.25" x="16.585" y="16.1" /><rect fill="#999999" height="1.0" stroke="black" stroke-width="0.05" width="0.25" x="17.235" y="16.1" /><rect fill="#333333" height="4.4" stroke="black" stroke-width="0.05" width="7.8" x="9.9" y="11.675" /><circle cx="10.4" cy="15.575000000000003" fill="#333333" r="0.2" stroke="black" stroke-width="0.05" /></g></svg>