<?xml version="1.0" encoding="utf-8" ?>
<svg baseProfile="full" height="27.75" version="1.1" width="22.37" xmlns="http://www.w3.org/2000/svg" xmlns:ev="http://www.w3.org/2001/xml-events" xmlns:xlink="http://www.w3.org/1999/xlink"><defs /><g id="pads"><rect fill="#D4AA00" height="1.78" stroke="black" stroke-width="0.05" width="0.42" x="10.0" y="10" /><rect fill="#D4AA00" height="1.78" stroke="black" stroke-width="0.05" width="0.42" x="10.65" y="10" /><rect fill="#D4AA00" height="1.78" stroke="black" stroke-width="0.05" width="0.42" x="11.3" y="10" /><rect fill="#D4AA00" height="1.78" stroke="black" stroke-width="0.05" width="0.42" x="11.95" y="10" /><rect fill="#D4AA00" height="1.78" stroke="black" stroke-width="0.05" width="0.42" x="10.0" y="15.97" /><rect fill="#D4AA00" height="1.78" stroke="black" stroke-width="0.05" width="0.42" x="10.65" y="15.97" /><rect fill="#D4AA00" height="1.78" stroke="black" stroke-width="0.05" width="0.42" x="11.3" y="15.97" /><rect fill="#D4AA00" height="1.78" stroke="black" stroke-width="0.05" width="0.42" x="11.95" y="15.97" /></g><g id="part"><rect fill="#999999" height="1.0" stroke="black" stroke-width="0.05" width="0.3" x="10.06" y="10.78" /><rect fill="#999999" height="1.0" stroke="black" stroke-width="0.05" width="0.3" x="10.71" y="10.78" /><rect fill="#999999" height="1.0" stroke="black" stroke-width="0.05" width="0.3" x="11.360000000000001" y="10.78" /><rect fill="#999999" height="1.0" stroke="black" stroke-width="0.05" width="0.3" x="12.01" y="10.78" /><rect fill="#999999" height="1.0" stroke="black" stroke-width="0.05" width="0.3" x="10.06" y="15.969999999999999" /><rect fill="#999999" height="1.0" stroke="black" stroke-width="0.05" width="0.3" x="10.71" y="15.969999999999999" /><rect fill="#999999" height="1.0" stroke="black" stroke-width="0.05" width="0.3" x="11.360000000000001" y="15.969999999999999" /><rect fill="#999999" height="1.0" stroke="black" stroke-width="0.05" width="0.3" x="12.01" y="15.969999999999999" /><rect fill="#333333" height="4.4" stroke="black" stroke-width="0.05" width="3" x="9.685" y="11.675" /><circle cx="10.185" cy="15.575000000000003" fill="#333333" r="0.2" stroke="black" stroke-width="0.05" /></g></svg>