<?xml version="1.0" encoding="utf-8" ?>
<svg baseProfile="full" height="42.6" version="1.1" width="42.6" xmlns="http://www.w3.org/2000/svg" xmlns:ev="http://www.w3.org/2001/xml-events" xmlns:xlink="http://www.w3.org/1999/xlink"><defs /><g id="pads"><rect fill="#D4AA00" height="1.35" stroke="black" stroke-width="0.05" width="0.35" x="12.375" y="10" /><rect fill="#D4AA00" height="1.35" stroke="black" stroke-width="0.05" width="0.35" x="12.875" y="10" /><rect fill="#D4AA00" height="1.35" stroke="black" stroke-width="0.05" width="0.35" x="13.375" y="10" /><rect fill="#D4AA00" height="1.35" stroke="black" stroke-width="0.05" width="0.35" x="13.875" y="10" /><rect fill="#D4AA00" height="1.35" stroke="black" stroke-width="0.05" width="0.35" x="14.375" y="10" /><rect fill="#D4AA00" height="1.35" stroke="black" stroke-width="0.05" width="0.35" x="14.875" y="10" /><rect fill="#D4AA00" height="1.35" stroke="black" stroke-width="0.05" width="0.35" x="15.375" y="10" /><rect fill="#D4AA00" height="1.35" stroke="black" stroke-width="0.05" width="0.35" x="15.875" y="10" /><rect fill="#D4AA00" height="1.35" stroke="black" stroke-width="0.05" width="0.35" x="16.375" y="10" /><rect fill="#D4AA00" height="1.35" stroke="black" stroke-width="0.05" width="0.35" x="16.875" y="10" /><rect fill="#D4AA00" height="1.35" stroke="black" stroke-width="0.05" width="0.35" x="17.375" y="10" /><rect fill="#D4AA00" height="1.35" stroke="black" stroke-width="0.05" width="0.35" x="17.875" y="10" /><rect fill="#D4AA00" height="1.35" stroke="black" stroke-width="0.05" width="0.35" x="18.375" y="10" /><rect fill="#D4AA00" height="1.35" stroke="black" stroke-width="0.05" width="0.35" x="18.875" y="10" /><rect fill="#D4AA00" height="1.35" stroke="black" stroke-width="0.05" width="0.35" x="19.375" y="10" /><rect fill="#D4AA00" height="1.35" stroke="black" stroke-width="0.05" width="0.35" x="19.875" y="10" /><rect fill="#D4AA00" height="1.35" stroke="black" stroke-width="0.05" width="0.35" x="20.375" y="10" /><rect fill="#D4AA00" height="1.35" stroke="black" stroke-width="0.05" width="0.35" x="20.875" y="10" /><rect fill="#D4AA00" height="1.35" stroke="black" stroke-width="0.05" width="0.35" x="21.375" y="10" /><rect fill="#D4AA00" height="1.35" stroke="black" stroke-width="0.05" width="0.35" x="21.875" y="10" /><rect fill="#D4AA00" height="1.35" stroke="black" stroke-width="0.05" width="0.35" x="22.375" y="10" /><rect fill="#D4AA00" height="1.35" stroke="black" stroke-width="0.05" width="0.35" x="22.875" y="10" /><rect fill="#D4AA00" height="1.35" stroke="black" stroke-width="0.05" width="0.35" x="23.375" y="10" /><rect fill="#D4AA00" height="1.35" stroke="black" stroke-width="0.05" width="0.35" x="23.875" y="10" /><rect fill="#D4AA00" height="1.35" stroke="black" stroke-width="0.05" width="0.35" x="24.375" y="10" /><rect fill="#D4AA00" height="1.35" stroke="black" stroke-width="0.05" width="0.35" x="24.875" y="10" /><rect fill="#D4AA00" height="1.35" stroke="black" stroke-width="0.05" width="0.35" x="25.375" y="10" /><rect fill="#D4AA00" height="1.35" stroke="black" stroke-width="0.05" width="0.35" x="25.875" y="10" /><rect fill="#D4AA00" height="1.35" stroke="black" stroke-width="0.05" width="0.35" x="26.375" y="10" /><rect fill="#D4AA00" height="1.35" stroke="black" stroke-width="0.05" width="0.35" x="26.875" y="10" /><rect fill="#D4AA00" height="1.35" stroke="black" stroke-width="0.05" width="0.35" x="27.375" y="10" /><rect fill="#D4AA00" height="1.35" stroke="black" stroke-width="0.05" width="0.35" x="27.875" y="10" /><rect fill="#D4AA00" height="1.35" stroke="black" stroke-width="0.05" width="0.35" x="28.375" y="10" /><rect fill="#D4AA00" height="1.35" stroke="black" stroke-width="0.05" width="0.35" x="28.875" y="10" /><rect fill="#D4AA00" height="1.35" stroke="black" stroke-width="0.05" width="0.35" x="29.375" y="10" /><rect fill="#D4AA00" height="1.35" stroke="black" stroke-width="0.05" width="0.35" x="29.875" y="10" /><rect fill="#D4AA00" height="1.35" stroke="black" stroke-width="0.05" width="0.35" x="12.375" y="31.25" /><rect fill="#D4AA00" height="1.35" stroke="black" stroke-width="0.05" width="0.35" x="12.875" y="31.25" /><rect fill="#D4AA00" height="1.35" stroke="black" stroke-width="0.05" width="0.35" x="13.375" y="31.25" /><rect fill="#D4AA00" height="1.35" stroke="black" stroke-width="0.05" width="0.35" x="13.875" y="31.25" /><rect fill="#D4AA00" height="1.35" stroke="black" stroke-width="0.05" width="0.35" x="14.375" y="31.25" /><rect fill="#D4AA00" height="1.35" stroke="black" stroke-width="0.05" width="0.35" x="14.875" y="31.25" /><rect fill="#D4AA00" height="1.35" stroke="black" stroke-width="0.05" width="0.35" x="15.375" y="31.25" /><rect fill="#D4AA00" height="1.35" stroke="black" stroke-width="0.05" width="0.35" x="15.875" y="31.25" /><rect fill="#D4AA00" height="1.35" stroke="black" stroke-width="0.05" width="0.35" x="16.375" y="31.25" /><rect fill="#D4AA00" height="1.35" stroke="black" stroke-width="0.05" width="0.35" x="16.875" y="31.25" /><rect fill="#D4AA00" height="1.35" stroke="black" stroke-width="0.05" width="0.35" x="17.375" y="31.25" /><rect fill="#D4AA00" height="1.35" stroke="black" stroke-width="0.05" width="0.35" x="17.875" y="31.25" /><rect fill="#D4AA00" height="1.35" stroke="black" stroke-width="0.05" width="0.35" x="18.375" y="31.25" /><rect fill="#D4AA00" height="1.35" stroke="black" stroke-width="0.05" width="0.35" x="18.875" y="31.25" /><rect fill="#D4AA00" height="1.35" stroke="black" stroke-width="0.05" width="0.35" x="19.375" y="31.25" /><rect fill="#D4AA00" height="1.35" stroke="black" stroke-width="0.05" width="0.35" x="19.875" y="31.25" /><rect fill="#D4AA00" height="1.35" stroke="black" stroke-width="0.05" width="0.35" x="20.375" y="31.25" /><rect fill="#D4AA00" height="1.35" stroke="black" stroke-width="0.05" width="0.35" x="20.875" y="31.25" /><rect fill="#D4AA00" height="1.35" stroke="black" stroke-width="0.05" width="0.35" x="21.375" y="31.25" /><rect fill="#D4AA00" height="1.35" stroke="black" stroke-width="0.05" width="0.35" x="21.875" y="31.25" /><rect fill="#D4AA00" height="1.35" stroke="black" stroke-width="0.05" width="0.35" x="22.375" y="31.25" /><rect fill="#D4AA00" height="1.35" stroke="black" stroke-width="0.05" width="0.35" x="22.875" y="31.25" /><rect fill="#D4AA00" height="1.35" stroke="black" stroke-width="0.05" width="0.35" x="23.375" y="31.25" /><rect fill="#D4AA00" height="1.35" stroke="black" stroke-width="0.05" width="0.35" x="23.875" y="31.25" /><rect fill="#D4AA00" height="1.35" stroke="black" stroke-width="0.05" width="0.35" x="24.375" y="31.25" /><rect fill="#D4AA00" height="1.35" stroke="black" stroke-width="0.05" width="0.35" x="24.875" y="31.25" /><rect fill="#D4AA00" height="1.35" stroke="black" stroke-width="0.05" width="0.35" x="25.375" y="31.25" /><rect fill="#D4AA00" height="1.35" stroke="black" stroke-width="0.05" width="0.35" x="25.875" y="31.25" /><rect fill="#D4AA00" height="1.35" stroke="black" stroke-width="0.05" width="0.35" x="26.375" y="31.25" /><rect fill="#D4AA00" height="1.35" stroke="black" stroke-width="0.05" width="0.35" x="26.875" y="31.25" /><rect fill="#D4AA00" height="1.35" stroke="black" stroke-width="0.05" width="0.35" x="27.375" y="31.25" /><rect fill="#D4AA00" height="1.35" stroke="black" stroke-width="0.05" width="0.35" x="27.875" y="31.25" /><rect fill="#D4AA00" height="1.35" stroke="black" stroke-width="0.05" width="0.35" x="28.375" y="31.25" /><rect fill="#D4AA00" height="1.35" stroke="black" stroke-width="0.05" width="0.35" x="28.875" y="31.25" /><rect fill="#D4AA00" height="1.35" stroke="black" stroke-width="0.05" width="0.35" x="29.375" y="31.25" /><rect fill="#D4AA00" height="1.35" stroke="black" stroke-width="0.05" width="0.35" x="29.875" y="31.25" /><rect fill="#D4AA00" height="0.35" stroke="black" stroke-width="0.05" width="1.35" x="10" y="12.375" /><rect fill="#D4AA00" height="0.35" stroke="black" stroke-width="0.05" width="1.35" x="10" y="12.875" /><rect fill="#D4AA00" height="0.35" stroke="black" stroke-width="0.05" width="1.35" x="10" y="13.375" /><rect fill="#D4AA00" height="0.35" stroke="black" stroke-width="0.05" width="1.35" x="10" y="13.875" /><rect fill="#D4AA00" height="0.35" stroke="black" stroke-width="0.05" width="1.35" x="10" y="14.375" /><rect fill="#D4AA00" height="0.35" stroke="black" stroke-width="0.05" width="1.35" x="10" y="14.875" /><rect fill="#D4AA00" height="0.35" stroke="black" stroke-width="0.05" width="1.35" x="10" y="15.375" /><rect fill="#D4AA00" height="0.35" stroke="black" stroke-width="0.05" width="1.35" x="10" y="15.875" /><rect fill="#D4AA00" height="0.35" stroke="black" stroke-width="0.05" width="1.35" x="10" y="16.375" /><rect fill="#D4AA00" height="0.35" stroke="black" stroke-width="0.05" width="1.35" x="10" y="16.875" /><rect fill="#D4AA00" height="0.35" stroke="black" stroke-width="0.05" width="1.35" x="10" y="17.375" /><rect fill="#D4AA00" height="0.35" stroke="black" stroke-width="0.05" width="1.35" x="10" y="17.875" /><rect fill="#D4AA00" height="0.35" stroke="black" stroke-width="0.05" width="1.35" x="10" y="18.375" /><rect fill="#D4AA00" height="0.35" stroke="black" stroke-width="0.05" width="1.35" x="10" y="18.875" /><rect fill="#D4AA00" height="0.35" stroke="black" stroke-width="0.05" width="1.35" x="10" y="19.375" /><rect fill="#D4AA00" height="0.35" stroke="black" stroke-width="0.05" width="1.35" x="10" y="19.875" /><rect fill="#D4AA00" height="0.35" stroke="black" stroke-width="0.05" width="1.35" x="10" y="20.375" /><rect fill="#D4AA00" height="0.35" stroke="black" stroke-width="0.05" width="1.35" x="10" y="20.875" /><rect fill="#D4AA00" height="0.35" stroke="black" stroke-width="0.05" width="1.35" x="10" y="21.375" /><rect fill="#D4AA00" height="0.35" stroke="black" stroke-width="0.05" width="1.35" x="10" y="21.875" /><rect fill="#D4AA00" height="0.35" stroke="black" stroke-width="0.05" width="1.35" x="10" y="22.375" /><rect fill="#D4AA00" height="0.35" stroke="black" stroke-width="0.05" width="1.35" x="10" y="22.875" /><rect fill="#D4AA00" height="0.35" stroke="black" stroke-width="0.05" width="1.35" x="10" y="23.375" /><rect fill="#D4AA00" height="0.35" stroke="black" stroke-width="0.05" width="1.35" x="10" y="23.875" /><rect fill="#D4AA00" height="0.35" stroke="black" stroke-width="0.05" width="1.35" x="10" y="24.375" /><rect fill="#D4AA00" height="0.35" stroke="black" stroke-width="0.05" width="1.35" x="10" y="24.875" /><rect fill="#D4AA00" height="0.35" stroke="black" stroke-width="0.05" width="1.35" x="10" y="25.375" /><rect fill="#D4AA00" height="0.35" stroke="black" stroke-width="0.05" width="1.35" x="10" y="25.875" /><rect fill="#D4AA00" height="0.35" stroke="black" stroke-width="0.05" width="1.35" x="10" y="26.375" /><rect fill="#D4AA00" height="0.35" stroke="black" stroke-width="0.05" width="1.35" x="10" y="26.875" /><rect fill="#D4AA00" height="0.35" stroke="black" stroke-width="0.05" width="1.35" x="10" y="27.375" /><rect fill="#D4AA00" height="0.35" stroke="black" stroke-width="0.05" width="1.35" x="10" y="27.875" /><rect fill="#D4AA00" height="0.35" stroke="black" stroke-width="0.05" width="1.35" x="10" y="28.375" /><rect fill="#D4AA00" height="0.35" stroke="black" stroke-width="0.05" width="1.35" x="10" y="28.875" /><rect fill="#D4AA00" height="0.35" stroke="black" stroke-width="0.05" width="1.35" x="10" y="29.375" /><rect fill="#D4AA00" height="0.35" stroke="black" stroke-width="0.05" width="1.35" x="10" y="29.875" /><rect fill="#D4AA00" height="0.35" stroke="black" stroke-width="0.05" width="1.35" x="31.25" y="12.375" /><rect fill="#D4AA00" height="0.35" stroke="black" stroke-width="0.05" width="1.35" x="31.25" y="12.875" /><rect fill="#D4AA00" height="0.35" stroke="black" stroke-width="0.05" width="1.35" x="31.25" y="13.375" /><rect fill="#D4AA00" height="0.35" stroke="black" stroke-width="0.05" width="1.35" x="31.25" y="13.875" /><rect fill="#D4AA00" height="0.35" stroke="black" stroke-width="0.05" width="1.35" x="31.25" y="14.375" /><rect fill="#D4AA00" height="0.35" stroke="black" stroke-width="0.05" width="1.35" x="31.25" y="14.875" /><rect fill="#D4AA00" height="0.35" stroke="black" stroke-width="0.05" width="1.35" x="31.25" y="15.375" /><rect fill="#D4AA00" height="0.35" stroke="black" stroke-width="0.05" width="1.35" x="31.25" y="15.875" /><rect fill="#D4AA00" height="0.35" stroke="black" stroke-width="0.05" width="1.35" x="31.25" y="16.375" /><rect fill="#D4AA00" height="0.35" stroke="black" stroke-width="0.05" width="1.35" x="31.25" y="16.875" /><rect fill="#D4AA00" height="0.35" stroke="black" stroke-width="0.05" width="1.35" x="31.25" y="17.375" /><rect fill="#D4AA00" height="0.35" stroke="black" stroke-width="0.05" width="1.35" x="31.25" y="17.875" /><rect fill="#D4AA00" height="0.35" stroke="black" stroke-width="0.05" width="1.35" x="31.25" y="18.375" /><rect fill="#D4AA00" height="0.35" stroke="black" stroke-width="0.05" width="1.35" x="31.25" y="18.875" /><rect fill="#D4AA00" height="0.35" stroke="black" stroke-width="0.05" width="1.35" x="31.25" y="19.375" /><rect fill="#D4AA00" height="0.35" stroke="black" stroke-width="0.05" width="1.35" x="31.25" y="19.875" /><rect fill="#D4AA00" height="0.35" stroke="black" stroke-width="0.05" width="1.35" x="31.25" y="20.375" /><rect fill="#D4AA00" height="0.35" stroke="black" stroke-width="0.05" width="1.35" x="31.25" y="20.875" /><rect fill="#D4AA00" height="0.35" stroke="black" stroke-width="0.05" width="1.35" x="31.25" y="21.375" /><rect fill="#D4AA00" height="0.35" stroke="black" stroke-width="0.05" width="1.35" x="31.25" y="21.875" /><rect fill="#D4AA00" height="0.35" stroke="black" stroke-width="0.05" width="1.35" x="31.25" y="22.375" /><rect fill="#D4AA00" height="0.35" stroke="black" stroke-width="0.05" width="1.35" x="31.25" y="22.875" /><rect fill="#D4AA00" height="0.35" stroke="black" stroke-width="0.05" width="1.35" x="31.25" y="23.375" /><rect fill="#D4AA00" height="0.35" stroke="black" stroke-width="0.05" width="1.35" x="31.25" y="23.875" /><rect fill="#D4AA00" height="0.35" stroke="black" stroke-width="0.05" width="1.35" x="31.25" y="24.375" /><rect fill="#D4AA00" height="0.35" stroke="black" stroke-width="0.05" width="1.35" x="31.25" y="24.875" /><rect fill="#D4AA00" height="0.35" stroke="black" stroke-width="0.05" width="1.35" x="31.25" y="25.375" /><rect fill="#D4AA00" height="0.35" stroke="black" stroke-width="0.05" width="1.35" x="31.25" y="25.875" /><rect fill="#D4AA00" height="0.35" stroke="black" stroke-width="0.05" width="1.35" x="31.25" y="26.375" /><rect fill="#D4AA00" height="0.35" stroke="black" stroke-width="0.05" width="1.35" x="31.25" y="26.875" /><rect fill="#D4AA00" height="0.35" stroke="black" stroke-width="0.05" width="1.35" x="31.25" y="27.375" /><rect fill="#D4AA00" height="0.35" stroke="black" stroke-width="0.05" width="1.35" x="31.25" y="27.875" /><rect fill="#D4AA00" height="0.35" stroke="black" stroke-width="0.05" width="1.35" x="31.25" y="28.375" /><rect fill="#D4AA00" height="0.35" stroke="black" stroke-width="0.05" width="1.35" x="31.25" y="28.875" /><rect fill="#D4AA00" height="0.35" stroke="black" stroke-width="0.05" width="1.35" x="31.25" y="29.375" /><rect fill="#D4AA00" height="0.35" stroke="black" stroke-width="0.05" width="1.35" x="31.25" y="29.875" /></g><g id="part"><rect fill="#999999" height="1.0" stroke="black" stroke-width="0.05" width="0.22" x="12.44" y="10.3" /><rect fill="#999999" height="1.0" stroke="black" stroke-width="0.05" width="0.22" x="12.94" y="10.3" /><rect fill="#999999" height="1.0" stroke="black" stroke-width="0.05" width="0.22" x="13.44" y="10.3" /><rect fill="#999999" height="1.0" stroke="black" stroke-width="0.05" width="0.22" x="13.94" y="10.3" /><rect fill="#999999" height="1.0" stroke="black" stroke-width="0.05" width="0.22" x="14.44" y="10.3" /><rect fill="#999999" height="1.0" stroke="black" stroke-width="0.05" width="0.22" x="14.94" y="10.3" /><rect fill="#999999" height="1.0" stroke="black" stroke-width="0.05" width="0.22" x="15.44" y="10.3" /><rect fill="#999999" height="1.0" stroke="black" stroke-width="0.05" width="0.22" x="15.94" y="10.3" /><rect fill="#999999" height="1.0" stroke="black" stroke-width="0.05" width="0.22" x="16.439999999999998" y="10.3" /><rect fill="#999999" height="1.0" stroke="black" stroke-width="0.05" width="0.22" x="16.939999999999998" y="10.3" /><rect fill="#999999" height="1.0" stroke="black" stroke-width="0.05" width="0.22" x="17.439999999999998" y="10.3" /><rect fill="#999999" height="1.0" stroke="black" stroke-width="0.05" width="0.22" x="17.939999999999998" y="10.3" /><rect fill="#999999" height="1.0" stroke="black" stroke-width="0.05" width="0.22" x="18.439999999999998" y="10.3" /><rect fill="#999999" height="1.0" stroke="black" stroke-width="0.05" width="0.22" x="18.939999999999998" y="10.3" /><rect fill="#999999" height="1.0" stroke="black" stroke-width="0.05" width="0.22" x="19.439999999999998" y="10.3" /><rect fill="#999999" height="1.0" stroke="black" stroke-width="0.05" width="0.22" x="19.939999999999998" y="10.3" /><rect fill="#999999" height="1.0" stroke="black" stroke-width="0.05" width="0.22" x="20.439999999999998" y="10.3" /><rect fill="#999999" height="1.0" stroke="black" stroke-width="0.05" width="0.22" x="20.939999999999998" y="10.3" /><rect fill="#999999" height="1.0" stroke="black" stroke-width="0.05" width="0.22" x="21.439999999999998" y="10.3" /><rect fill="#999999" height="1.0" stroke="black" stroke-width="0.05" width="0.22" x="21.939999999999998" y="10.3" /><rect fill="#999999" height="1.0" stroke="black" stroke-width="0.05" width="0.22" x="22.439999999999998" y="10.3" /><rect fill="#999999" height="1.0" stroke="black" stroke-width="0.05" width="0.22" x="22.939999999999998" y="10.3" /><rect fill="#999999" height="1.0" stroke="black" stroke-width="0.05" width="0.22" x="23.439999999999998" y="10.3" /><rect fill="#999999" height="1.0" stroke="black" stroke-width="0.05" width="0.22" x="23.939999999999998" y="10.3" /><rect fill="#999999" height="1.0" stroke="black" stroke-width="0.05" width="0.22" x="24.439999999999998" y="10.3" /><rect fill="#999999" height="1.0" stroke="black" stroke-width="0.05" width="0.22" x="24.939999999999998" y="10.3" /><rect fill="#999999" height="1.0" stroke="black" stroke-width="0.05" width="0.22" x="25.439999999999998" y="10.3" /><rect fill="#999999" height="1.0" stroke="black" stroke-width="0.05" width="0.22" x="25.939999999999998" y="10.3" /><rect fill="#999999" height="1.0" stroke="black" stroke-width="0.05" width="0.22" x="26.439999999999998" y="10.3" /><rect fill="#999999" height="1.0" stroke="black" stroke-width="0.05" width="0.22" x="26.939999999999998" y="10.3" /><rect fill="#999999" height="1.0" stroke="black" stroke-width="0.05" width="0.22" x="27.439999999999998" y="10.3" /><rect fill="#999999" height="1.0" stroke="black" stroke-width="0.05" width="0.22" x="27.939999999999998" y="10.3" /><rect fill="#999999" height="1.0" stroke="black" stroke-width="0.05" width="0.22" x="28.439999999999998" y="10.3" /><rect fill="#999999" height="1.0" stroke="black" stroke-width="0.05" width="0.22" x="28.939999999999998" y="10.3" /><rect fill="#999999" height="1.0" stroke="black" stroke-width="0.05" width="0.22" x="29.439999999999998" y="10.3" /><rect fill="#999999" height="1.0" stroke="black" stroke-width="0.05" width="0.22" x="29.939999999999998" y="10.3" /><rect fill="#999999" height="1.0" stroke="black" stroke-width="0.05" width="0.22" x="12.44" y="31.3" /><rect fill="#999999" height="1.0" stroke="black" stroke-width="0.05" width="0.22" x="12.94" y="31.3" /><rect fill="#999999" height="1.0" stroke="black" stroke-width="0.05" width="0.22" x="13.44" y="31.3" /><rect fill="#999999" height="1.0" stroke="black" stroke-width="0.05" width="0.22" x="13.94" y="31.3" /><rect fill="#999999" height="1.0" stroke="black" stroke-width="0.05" width="0.22" x="14.44" y="31.3" /><rect fill="#999999" height="1.0" stroke="black" stroke-width="0.05" width="0.22" x="14.94" y="31.3" /><rect fill="#999999" height="1.0" stroke="black" stroke-width="0.05" width="0.22" x="15.44" y="31.3" /><rect fill="#999999" height="1.0" stroke="black" stroke-width="0.05" width="0.22" x="15.94" y="31.3" /><rect fill="#999999" height="1.0" stroke="black" stroke-width="0.05" width="0.22" x="16.439999999999998" y="31.3" /><rect fill="#999999" height="1.0" stroke="black" stroke-width="0.05" width="0.22" x="16.939999999999998" y="31.3" /><rect fill="#999999" height="1.0" stroke="black" stroke-width="0.05" width="0.22" x="17.439999999999998" y="31.3" /><rect fill="#999999" height="1.0" stroke="black" stroke-width="0.05" width="0.22" x="17.939999999999998" y="31.3" /><rect fill="#999999" height="1.0" stroke="black" stroke-width="0.05" width="0.22" x="18.439999999999998" y="31.3" /><rect fill="#999999" height="1.0" stroke="black" stroke-width="0.05" width="0.22" x="18.939999999999998" y="31.3" /><rect fill="#999999" height="1.0" stroke="black" stroke-width="0.05" width="0.22" x="19.439999999999998" y="31.3" /><rect fill="#999999" height="1.0" stroke="black" stroke-width="0.05" width="0.22" x="19.939999999999998" y="31.3" /><rect fill="#999999" height="1.0" stroke="black" stroke-width="0.05" width="0.22" x="20.439999999999998" y="31.3" /><rect fill="#999999" height="1.0" stroke="black" stroke-width="0.05" width="0.22" x="20.939999999999998" y="31.3" /><rect fill="#999999" height="1.0" stroke="black" stroke-width="0.05" width="0.22" x="21.439999999999998" y="31.3" /><rect fill="#999999" height="1.0" stroke="black" stroke-width="0.05" width="0.22" x="21.939999999999998" y="31.3" /><rect fill="#999999" height="1.0" stroke="black" stroke-width="0.05" width="0.22" x="22.439999999999998" y="31.3" /><rect fill="#999999" height="1.0" stroke="black" stroke-width="0.05" width="0.22" x="22.939999999999998" y="31.3" /><rect fill="#999999" height="1.0" stroke="black" stroke-width="0.05" width="0.22" x="23.439999999999998" y="31.3" /><rect fill="#999999" height="1.0" stroke="black" stroke-width="0.05" width="0.22" x="23.939999999999998" y="31.3" /><rect fill="#999999" height="1.0" stroke="black" stroke-width="0.05" width="0.22" x="24.439999999999998" y="31.3" /><rect fill="#999999" height="1.0" stroke="black" stroke-width="0.05" width="0.22" x="24.939999999999998" y="31.3" /><rect fill="#999999" height="1.0" stroke="black" stroke-width="0.05" width="0.22" x="25.439999999999998" y="31.3" /><rect fill="#999999" height="1.0" stroke="black" stroke-width="0.05" width="0.22" x="25.939999999999998" y="31.3" /><rect fill="#999999" height="1.0" stroke="black" stroke-width="0.05" width="0.22" x="26.439999999999998" y="31.3" /><rect fill="#999999" height="1.0" stroke="black" stroke-width="0.05" width="0.22" x="26.939999999999998" y="31.3" /><rect fill="#999999" height="1.0" stroke="black" stroke-width="0.05" width="0.22" x="27.439999999999998" y="31.3" /><rect fill="#999999" height="1.0" stroke="black" stroke-width="0.05" width="0.22" x="27.939999999999998" y="31.3" /><rect fill="#999999" height="1.0" stroke="black" stroke-width="0.05" width="0.22" x="28.439999999999998" y="31.3" /><rect fill="#999999" height="1.0" stroke="black" stroke-width="0.05" width="0.22" x="28.939999999999998" y="31.3" /><rect fill="#999999" height="1.0" stroke="black" stroke-width="0.05" width="0.22" x="29.439999999999998" y="31.3" /><rect fill="#999999" height="1.0" stroke="black" stroke-width="0.05" width="0.22" x="29.939999999999998" y="31.3" /><rect fill="#999999" height="0.22" stroke="black" stroke-width="0.05" width="1.0" x="10.3" y="12.44" /><rect fill="#999999" height="0.22" stroke="black" stroke-width="0.05" width="1.0" x="10.3" y="12.94" /><rect fill="#999999" height="0.22" stroke="black" stroke-width="0.05" width="1.0" x="10.3" y="13.44" /><rect fill="#999999" height="0.22" stroke="black" stroke-width="0.05" width="1.0" x="10.3" y="13.94" /><rect fill="#999999" height="0.22" stroke="black" stroke-width="0.05" width="1.0" x="10.3" y="14.44" /><rect fill="#999999" height="0.22" stroke="black" stroke-width="0.05" width="1.0" x="10.3" y="14.94" /><rect fill="#999999" height="0.22" stroke="black" stroke-width="0.05" width="1.0" x="10.3" y="15.44" /><rect fill="#999999" height="0.22" stroke="black" stroke-width="0.05" width="1.0" x="10.3" y="15.94" /><rect fill="#999999" height="0.22" stroke="black" stroke-width="0.05" width="1.0" x="10.3" y="16.439999999999998" /><rect fill="#999999" height="0.22" stroke="black" stroke-width="0.05" width="1.0" x="10.3" y="16.939999999999998" /><rect fill="#999999" height="0.22" stroke="black" stroke-width="0.05" width="1.0" x="10.3" y="17.439999999999998" /><rect fill="#999999" height="0.22" stroke="black" stroke-width="0.05" width="1.0" x="10.3" y="17.939999999999998" /><rect fill="#999999" height="0.22" stroke="black" stroke-width="0.05" width="1.0" x="10.3" y="18.439999999999998" /><rect fill="#999999" height="0.22" stroke="black" stroke-width="0.05" width="1.0" x="10.3" y="18.939999999999998" /><rect fill="#999999" height="0.22" stroke="black" stroke-width="0.05" width="1.0" x="10.3" y="19.439999999999998" /><rect fill="#999999" height="0.22" stroke="black" stroke-width="0.05" width="1.0" x="10.3" y="19.939999999999998" /><rect fill="#999999" height="0.22" stroke="black" stroke-width="0.05" width="1.0" x="10.3" y="20.439999999999998" /><rect fill="#999999" height="0.22" stroke="black" stroke-width="0.05" width="1.0" x="10.3" y="20.939999999999998" /><rect fill="#999999" height="0.22" stroke="black" stroke-width="0.05" width="1.0" x="10.3" y="21.439999999999998" /><rect fill="#999999" height="0.22" stroke="black" stroke-width="0.05" width="1.0" x="10.3" y="21.939999999999998" /><rect fill="#999999" height="0.22" stroke="black" stroke-width="0.05" width="1.0" x="10.3" y="22.439999999999998" /><rect fill="#999999" height="0.22" stroke="black" stroke-width="0.05" width="1.0" x="10.3" y="22.939999999999998" /><rect fill="#999999" height="0.22" stroke="black" stroke-width="0.05" width="1.0" x="10.3" y="23.439999999999998" /><rect fill="#999999" height="0.22" stroke="black" stroke-width="0.05" width="1.0" x="10.3" y="23.939999999999998" /><rect fill="#999999" height="0.22" stroke="black" stroke-width="0.05" width="1.0" x="10.3" y="24.439999999999998" /><rect fill="#999999" height="0.22" stroke="black" stroke-width="0.05" width="1.0" x="10.3" y="24.939999999999998" /><rect fill="#999999" height="0.22" stroke="black" stroke-width="0.05" width="1.0" x="10.3" y="25.439999999999998" /><rect fill="#999999" height="0.22" stroke="black" stroke-width="0.05" width="1.0" x="10.3" y="25.939999999999998" /><rect fill="#999999" height="0.22" stroke="black" stroke-width="0.05" width="1.0" x="10.3" y="26.439999999999998" /><rect fill="#999999" height="0.22" stroke="black" stroke-width="0.05" width="1.0" x="10.3" y="26.939999999999998" /><rect fill="#999999" height="0.22" stroke="black" stroke-width="0.05" width="1.0" x="10.3" y="27.439999999999998" /><rect fill="#999999" height="0.22" stroke="black" stroke-width="0.05" width="1.0" x="10.3" y="27.939999999999998" /><rect fill="#999999" height="0.22" stroke="black" stroke-width="0.05" width="1.0" x="10.3" y="28.439999999999998" /><rect fill="#999999" height="0.22" stroke="black" stroke-width="0.05" width="1.0" x="10.3" y="28.939999999999998" /><rect fill="#999999" height="0.22" stroke="black" stroke-width="0.05" width="1.0" x="10.3" y="29.439999999999998" /><rect fill="#999999" height="0.22" stroke="black" stroke-width="0.05" width="1.0" x="10.3" y="29.939999999999998" /><rect fill="#999999" height="0.22" stroke="black" stroke-width="0.05" width="1.0" x="31.3" y="12.44" /><rect fill="#999999" height="0.22" stroke="black" stroke-width="0.05" width="1.0" x="31.3" y="12.94" /><rect fill="#999999" height="0.22" stroke="black" stroke-width="0.05" width="1.0" x="31.3" y="13.44" /><rect fill="#999999" height="0.22" stroke="black" stroke-width="0.05" width="1.0" x="31.3" y="13.94" /><rect fill="#999999" height="0.22" stroke="black" stroke-width="0.05" width="1.0" x="31.3" y="14.44" /><rect fill="#999999" height="0.22" stroke="black" stroke-width="0.05" width="1.0" x="31.3" y="14.94" /><rect fill="#999999" height="0.22" stroke="black" stroke-width="0.05" width="1.0" x="31.3" y="15.44" /><rect fill="#999999" height="0.22" stroke="black" stroke-width="0.05" width="1.0" x="31.3" y="15.94" /><rect fill="#999999" height="0.22" stroke="black" stroke-width="0.05" width="1.0" x="31.3" y="16.439999999999998" /><rect fill="#999999" height="0.22" stroke="black" stroke-width="0.05" width="1.0" x="31.3" y="16.939999999999998" /><rect fill="#999999" height="0.22" stroke="black" stroke-width="0.05" width="1.0" x="31.3" y="17.439999999999998" /><rect fill="#999999" height="0.22" stroke="black" stroke-width="0.05" width="1.0" x="31.3" y="17.939999999999998" /><rect fill="#999999" height="0.22" stroke="black" stroke-width="0.05" width="1.0" x="31.3" y="18.439999999999998" /><rect fill="#999999" height="0.22" stroke="black" stroke-width="0.05" width="1.0" x="31.3" y="18.939999999999998" /><rect fill="#999999" height="0.22" stroke="black" stroke-width="0.05" width="1.0" x="31.3" y="19.439999999999998" /><rect fill="#999999" height="0.22" stroke="black" stroke-width="0.05" width="1.0" x="31.3" y="19.939999999999998" /><rect fill="#999999" height="0.22" stroke="black" stroke-width="0.05" width="1.0" x="31.3" y="20.439999999999998" /><rect fill="#999999" height="0.22" stroke="black" stroke-width="0.05" width="1.0" x="31.3" y="20.939999999999998" /><rect fill="#999999" height="0.22" stroke="black" stroke-width="0.05" width="1.0" x="31.3" y="21.439999999999998" /><rect fill="#999999" height="0.22" stroke="black" stroke-width="0.05" width="1.0" x="31.3" y="21.939999999999998" /><rect fill="#999999" height="0.22" stroke="black" stroke-width="0.05" width="1.0" x="31.3" y="22.439999999999998" /><rect fill="#999999" height="0.22" stroke="black" stroke-width="0.05" width="1.0" x="31.3" y="22.939999999999998" /><rect fill="#999999" height="0.22" stroke="black" stroke-width="0.05" width="1.0" x="31.3" y="23.439999999999998" /><rect fill="#999999" height="0.22" stroke="black" stroke-width="0.05" width="1.0" x="31.3" y="23.939999999999998" /><rect fill="#999999" height="0.22" stroke="black" stroke-width="0.05" width="1.0" x="31.3" y="24.439999999999998" /><rect fill="#999999" height="0.22" stroke="black" stroke-width="0.05" width="1.0" x="31.3" y="24.939999999999998" /><rect fill="#999999" height="0.22" stroke="black" stroke-width="0.05" width="1.0" x="31.3" y="25.439999999999998" /><rect fill="#999999" height="0.22" stroke="black" stroke-width="0.05" width="1.0" x="31.3" y="25.939999999999998" /><rect fill="#999999" height="0.22" stroke="black" stroke-width="0.05" width="1.0" x="31.3" y="26.439999999999998" /><rect fill="#999999" height="0.22" stroke="black" stroke-width="0.05" width="1.0" x="31.3" y="26.939999999999998" /><rect fill="#999999" height="0.22" stroke="black" stroke-width="0.05" width="1.0" x="31.3" y="27.439999999999998" /><rect fill="#999999" height="0.22" stroke="black" stroke-width="0.05" width="1.0" x="31.3" y="27.939999999999998" /><rect fill="#999999" height="0.22" stroke="black" stroke-width="0.05" width="1.0" x="31.3" y="28.439999999999998" /><rect fill="#999999" height="0.22" stroke="black" stroke-width="0.05" width="1.0" x="31.3" y="28.939999999999998" /><rect fill="#999999" height="0.22" stroke="black" stroke-width="0.05" width="1.0" x="31.3" y="29.439999999999998" /><rect fill="#999999" height="0.22" stroke="black" stroke-width="0.05" width="1.0" x="31.3" y="29.939999999999998" /><polygon fill="#333333" points="11.3,12.05 12.05,11.3 30.55,11.3 31.3,12.05 31.3,30.55 30.55,31.3 12.05,31.3 11.3,30.55" stroke="black" stroke-width="0.05" /><circle cx="12.3" cy="30.3" fill="#333333" r="0.5" stroke="black" stroke-width="0.05" /></g></svg>