<?xml version="1.0" encoding="utf-8" ?>
<svg baseProfile="full" height="46.7" version="1.1" width="46.7" xmlns="http://www.w3.org/2000/svg" xmlns:ev="http://www.w3.org/2001/xml-events" xmlns:xlink="http://www.w3.org/1999/xlink"><defs /><g id="pads"><rect fill="#D4AA00" height="1.2" stroke="black" stroke-width="0.05" width="0.3" x="12.45" y="10" /><rect fill="#D4AA00" height="1.2" stroke="black" stroke-width="0.05" width="0.3" x="12.95" y="10" /><rect fill="#D4AA00" height="1.2" stroke="black" stroke-width="0.05" width="0.3" x="13.45" y="10" /><rect fill="#D4AA00" height="1.2" stroke="black" stroke-width="0.05" width="0.3" x="13.95" y="10" /><rect fill="#D4AA00" height="1.2" stroke="black" stroke-width="0.05" width="0.3" x="14.45" y="10" /><rect fill="#D4AA00" height="1.2" stroke="black" stroke-width="0.05" width="0.3" x="14.95" y="10" /><rect fill="#D4AA00" height="1.2" stroke="black" stroke-width="0.05" width="0.3" x="15.45" y="10" /><rect fill="#D4AA00" height="1.2" stroke="black" stroke-width="0.05" width="0.3" x="15.95" y="10" /><rect fill="#D4AA00" height="1.2" stroke="black" stroke-width="0.05" width="0.3" x="16.45" y="10" /><rect fill="#D4AA00" height="1.2" stroke="black" stroke-width="0.05" width="0.3" x="16.95" y="10" /><rect fill="#D4AA00" height="1.2" stroke="black" stroke-width="0.05" width="0.3" x="17.45" y="10" /><rect fill="#D4AA00" height="1.2" stroke="black" stroke-width="0.05" width="0.3" x="17.95" y="10" /><rect fill="#D4AA00" height="1.2" stroke="black" stroke-width="0.05" width="0.3" x="18.45" y="10" /><rect fill="#D4AA00" height="1.2" stroke="black" stroke-width="0.05" width="0.3" x="18.95" y="10" /><rect fill="#D4AA00" height="1.2" stroke="black" stroke-width="0.05" width="0.3" x="19.45" y="10" /><rect fill="#D4AA00" height="1.2" stroke="black" stroke-width="0.05" width="0.3" x="19.95" y="10" /><rect fill="#D4AA00" height="1.2" stroke="black" stroke-width="0.05" width="0.3" x="20.45" y="10" /><rect fill="#D4AA00" height="1.2" stroke="black" stroke-width="0.05" width="0.3" x="20.95" y="10" /><rect fill="#D4AA00" height="1.2" stroke="black" stroke-width="0.05" width="0.3" x="21.45" y="10" /><rect fill="#D4AA00" height="1.2" stroke="black" stroke-width="0.05" width="0.3" x="21.95" y="10" /><rect fill="#D4AA00" height="1.2" stroke="black" stroke-width="0.05" width="0.3" x="22.45" y="10" /><rect fill="#D4AA00" height="1.2" stroke="black" stroke-width="0.05" width="0.3" x="22.95" y="10" /><rect fill="#D4AA00" height="1.2" stroke="black" stroke-width="0.05" width="0.3" x="23.45" y="10" /><rect fill="#D4AA00" height="1.2" stroke="black" stroke-width="0.05" width="0.3" x="23.95" y="10" /><rect fill="#D4AA00" height="1.2" stroke="black" stroke-width="0.05" width="0.3" x="24.45" y="10" /><rect fill="#D4AA00" height="1.2" stroke="black" stroke-width="0.05" width="0.3" x="24.95" y="10" /><rect fill="#D4AA00" height="1.2" stroke="black" stroke-width="0.05" width="0.3" x="25.45" y="10" /><rect fill="#D4AA00" height="1.2" stroke="black" stroke-width="0.05" width="0.3" x="25.95" y="10" /><rect fill="#D4AA00" height="1.2" stroke="black" stroke-width="0.05" width="0.3" x="26.45" y="10" /><rect fill="#D4AA00" height="1.2" stroke="black" stroke-width="0.05" width="0.3" x="26.95" y="10" /><rect fill="#D4AA00" height="1.2" stroke="black" stroke-width="0.05" width="0.3" x="27.45" y="10" /><rect fill="#D4AA00" height="1.2" stroke="black" stroke-width="0.05" width="0.3" x="27.95" y="10" /><rect fill="#D4AA00" height="1.2" stroke="black" stroke-width="0.05" width="0.3" x="28.45" y="10" /><rect fill="#D4AA00" height="1.2" stroke="black" stroke-width="0.05" width="0.3" x="28.95" y="10" /><rect fill="#D4AA00" height="1.2" stroke="black" stroke-width="0.05" width="0.3" x="29.45" y="10" /><rect fill="#D4AA00" height="1.2" stroke="black" stroke-width="0.05" width="0.3" x="29.95" y="10" /><rect fill="#D4AA00" height="1.2" stroke="black" stroke-width="0.05" width="0.3" x="30.45" y="10" /><rect fill="#D4AA00" height="1.2" stroke="black" stroke-width="0.05" width="0.3" x="30.95" y="10" /><rect fill="#D4AA00" height="1.2" stroke="black" stroke-width="0.05" width="0.3" x="31.45" y="10" /><rect fill="#D4AA00" height="1.2" stroke="black" stroke-width="0.05" width="0.3" x="31.95" y="10" /><rect fill="#D4AA00" height="1.2" stroke="black" stroke-width="0.05" width="0.3" x="32.45" y="10" /><rect fill="#D4AA00" height="1.2" stroke="black" stroke-width="0.05" width="0.3" x="32.95" y="10" /><rect fill="#D4AA00" height="1.2" stroke="black" stroke-width="0.05" width="0.3" x="33.45" y="10" /><rect fill="#D4AA00" height="1.2" stroke="black" stroke-width="0.05" width="0.3" x="33.95" y="10" /><rect fill="#D4AA00" height="1.2" stroke="black" stroke-width="0.05" width="0.3" x="12.45" y="35.5" /><rect fill="#D4AA00" height="1.2" stroke="black" stroke-width="0.05" width="0.3" x="12.95" y="35.5" /><rect fill="#D4AA00" height="1.2" stroke="black" stroke-width="0.05" width="0.3" x="13.45" y="35.5" /><rect fill="#D4AA00" height="1.2" stroke="black" stroke-width="0.05" width="0.3" x="13.95" y="35.5" /><rect fill="#D4AA00" height="1.2" stroke="black" stroke-width="0.05" width="0.3" x="14.45" y="35.5" /><rect fill="#D4AA00" height="1.2" stroke="black" stroke-width="0.05" width="0.3" x="14.95" y="35.5" /><rect fill="#D4AA00" height="1.2" stroke="black" stroke-width="0.05" width="0.3" x="15.45" y="35.5" /><rect fill="#D4AA00" height="1.2" stroke="black" stroke-width="0.05" width="0.3" x="15.95" y="35.5" /><rect fill="#D4AA00" height="1.2" stroke="black" stroke-width="0.05" width="0.3" x="16.45" y="35.5" /><rect fill="#D4AA00" height="1.2" stroke="black" stroke-width="0.05" width="0.3" x="16.95" y="35.5" /><rect fill="#D4AA00" height="1.2" stroke="black" stroke-width="0.05" width="0.3" x="17.45" y="35.5" /><rect fill="#D4AA00" height="1.2" stroke="black" stroke-width="0.05" width="0.3" x="17.95" y="35.5" /><rect fill="#D4AA00" height="1.2" stroke="black" stroke-width="0.05" width="0.3" x="18.45" y="35.5" /><rect fill="#D4AA00" height="1.2" stroke="black" stroke-width="0.05" width="0.3" x="18.95" y="35.5" /><rect fill="#D4AA00" height="1.2" stroke="black" stroke-width="0.05" width="0.3" x="19.45" y="35.5" /><rect fill="#D4AA00" height="1.2" stroke="black" stroke-width="0.05" width="0.3" x="19.95" y="35.5" /><rect fill="#D4AA00" height="1.2" stroke="black" stroke-width="0.05" width="0.3" x="20.45" y="35.5" /><rect fill="#D4AA00" height="1.2" stroke="black" stroke-width="0.05" width="0.3" x="20.95" y="35.5" /><rect fill="#D4AA00" height="1.2" stroke="black" stroke-width="0.05" width="0.3" x="21.45" y="35.5" /><rect fill="#D4AA00" height="1.2" stroke="black" stroke-width="0.05" width="0.3" x="21.95" y="35.5" /><rect fill="#D4AA00" height="1.2" stroke="black" stroke-width="0.05" width="0.3" x="22.45" y="35.5" /><rect fill="#D4AA00" height="1.2" stroke="black" stroke-width="0.05" width="0.3" x="22.95" y="35.5" /><rect fill="#D4AA00" height="1.2" stroke="black" stroke-width="0.05" width="0.3" x="23.45" y="35.5" /><rect fill="#D4AA00" height="1.2" stroke="black" stroke-width="0.05" width="0.3" x="23.95" y="35.5" /><rect fill="#D4AA00" height="1.2" stroke="black" stroke-width="0.05" width="0.3" x="24.45" y="35.5" /><rect fill="#D4AA00" height="1.2" stroke="black" stroke-width="0.05" width="0.3" x="24.95" y="35.5" /><rect fill="#D4AA00" height="1.2" stroke="black" stroke-width="0.05" width="0.3" x="25.45" y="35.5" /><rect fill="#D4AA00" height="1.2" stroke="black" stroke-width="0.05" width="0.3" x="25.95" y="35.5" /><rect fill="#D4AA00" height="1.2" stroke="black" stroke-width="0.05" width="0.3" x="26.45" y="35.5" /><rect fill="#D4AA00" height="1.2" stroke="black" stroke-width="0.05" width="0.3" x="26.95" y="35.5" /><rect fill="#D4AA00" height="1.2" stroke="black" stroke-width="0.05" width="0.3" x="27.45" y="35.5" /><rect fill="#D4AA00" height="1.2" stroke="black" stroke-width="0.05" width="0.3" x="27.95" y="35.5" /><rect fill="#D4AA00" height="1.2" stroke="black" stroke-width="0.05" width="0.3" x="28.45" y="35.5" /><rect fill="#D4AA00" height="1.2" stroke="black" stroke-width="0.05" width="0.3" x="28.95" y="35.5" /><rect fill="#D4AA00" height="1.2" stroke="black" stroke-width="0.05" width="0.3" x="29.45" y="35.5" /><rect fill="#D4AA00" height="1.2" stroke="black" stroke-width="0.05" width="0.3" x="29.95" y="35.5" /><rect fill="#D4AA00" height="1.2" stroke="black" stroke-width="0.05" width="0.3" x="30.45" y="35.5" /><rect fill="#D4AA00" height="1.2" stroke="black" stroke-width="0.05" width="0.3" x="30.95" y="35.5" /><rect fill="#D4AA00" height="1.2" stroke="black" stroke-width="0.05" width="0.3" x="31.45" y="35.5" /><rect fill="#D4AA00" height="1.2" stroke="black" stroke-width="0.05" width="0.3" x="31.95" y="35.5" /><rect fill="#D4AA00" height="1.2" stroke="black" stroke-width="0.05" width="0.3" x="32.45" y="35.5" /><rect fill="#D4AA00" height="1.2" stroke="black" stroke-width="0.05" width="0.3" x="32.95" y="35.5" /><rect fill="#D4AA00" height="1.2" stroke="black" stroke-width="0.05" width="0.3" x="33.45" y="35.5" /><rect fill="#D4AA00" height="1.2" stroke="black" stroke-width="0.05" width="0.3" x="33.95" y="35.5" /><rect fill="#D4AA00" height="0.3" stroke="black" stroke-width="0.05" width="1.2" x="10" y="12.45" /><rect fill="#D4AA00" height="0.3" stroke="black" stroke-width="0.05" width="1.2" x="10" y="12.95" /><rect fill="#D4AA00" height="0.3" stroke="black" stroke-width="0.05" width="1.2" x="10" y="13.45" /><rect fill="#D4AA00" height="0.3" stroke="black" stroke-width="0.05" width="1.2" x="10" y="13.95" /><rect fill="#D4AA00" height="0.3" stroke="black" stroke-width="0.05" width="1.2" x="10" y="14.45" /><rect fill="#D4AA00" height="0.3" stroke="black" stroke-width="0.05" width="1.2" x="10" y="14.95" /><rect fill="#D4AA00" height="0.3" stroke="black" stroke-width="0.05" width="1.2" x="10" y="15.45" /><rect fill="#D4AA00" height="0.3" stroke="black" stroke-width="0.05" width="1.2" x="10" y="15.95" /><rect fill="#D4AA00" height="0.3" stroke="black" stroke-width="0.05" width="1.2" x="10" y="16.45" /><rect fill="#D4AA00" height="0.3" stroke="black" stroke-width="0.05" width="1.2" x="10" y="16.95" /><rect fill="#D4AA00" height="0.3" stroke="black" stroke-width="0.05" width="1.2" x="10" y="17.45" /><rect fill="#D4AA00" height="0.3" stroke="black" stroke-width="0.05" width="1.2" x="10" y="17.95" /><rect fill="#D4AA00" height="0.3" stroke="black" stroke-width="0.05" width="1.2" x="10" y="18.45" /><rect fill="#D4AA00" height="0.3" stroke="black" stroke-width="0.05" width="1.2" x="10" y="18.95" /><rect fill="#D4AA00" height="0.3" stroke="black" stroke-width="0.05" width="1.2" x="10" y="19.45" /><rect fill="#D4AA00" height="0.3" stroke="black" stroke-width="0.05" width="1.2" x="10" y="19.95" /><rect fill="#D4AA00" height="0.3" stroke="black" stroke-width="0.05" width="1.2" x="10" y="20.45" /><rect fill="#D4AA00" height="0.3" stroke="black" stroke-width="0.05" width="1.2" x="10" y="20.95" /><rect fill="#D4AA00" height="0.3" stroke="black" stroke-width="0.05" width="1.2" x="10" y="21.45" /><rect fill="#D4AA00" height="0.3" stroke="black" stroke-width="0.05" width="1.2" x="10" y="21.95" /><rect fill="#D4AA00" height="0.3" stroke="black" stroke-width="0.05" width="1.2" x="10" y="22.45" /><rect fill="#D4AA00" height="0.3" stroke="black" stroke-width="0.05" width="1.2" x="10" y="22.95" /><rect fill="#D4AA00" height="0.3" stroke="black" stroke-width="0.05" width="1.2" x="10" y="23.45" /><rect fill="#D4AA00" height="0.3" stroke="black" stroke-width="0.05" width="1.2" x="10" y="23.95" /><rect fill="#D4AA00" height="0.3" stroke="black" stroke-width="0.05" width="1.2" x="10" y="24.45" /><rect fill="#D4AA00" height="0.3" stroke="black" stroke-width="0.05" width="1.2" x="10" y="24.95" /><rect fill="#D4AA00" height="0.3" stroke="black" stroke-width="0.05" width="1.2" x="10" y="25.45" /><rect fill="#D4AA00" height="0.3" stroke="black" stroke-width="0.05" width="1.2" x="10" y="25.95" /><rect fill="#D4AA00" height="0.3" stroke="black" stroke-width="0.05" width="1.2" x="10" y="26.45" /><rect fill="#D4AA00" height="0.3" stroke="black" stroke-width="0.05" width="1.2" x="10" y="26.95" /><rect fill="#D4AA00" height="0.3" stroke="black" stroke-width="0.05" width="1.2" x="10" y="27.45" /><rect fill="#D4AA00" height="0.3" stroke="black" stroke-width="0.05" width="1.2" x="10" y="27.95" /><rect fill="#D4AA00" height="0.3" stroke="black" stroke-width="0.05" width="1.2" x="10" y="28.45" /><rect fill="#D4AA00" height="0.3" stroke="black" stroke-width="0.05" width="1.2" x="10" y="28.95" /><rect fill="#D4AA00" height="0.3" stroke="black" stroke-width="0.05" width="1.2" x="10" y="29.45" /><rect fill="#D4AA00" height="0.3" stroke="black" stroke-width="0.05" width="1.2" x="10" y="29.95" /><rect fill="#D4AA00" height="0.3" stroke="black" stroke-width="0.05" width="1.2" x="10" y="30.45" /><rect fill="#D4AA00" height="0.3" stroke="black" stroke-width="0.05" width="1.2" x="10" y="30.95" /><rect fill="#D4AA00" height="0.3" stroke="black" stroke-width="0.05" width="1.2" x="10" y="31.45" /><rect fill="#D4AA00" height="0.3" stroke="black" stroke-width="0.05" width="1.2" x="10" y="31.95" /><rect fill="#D4AA00" height="0.3" stroke="black" stroke-width="0.05" width="1.2" x="10" y="32.45" /><rect fill="#D4AA00" height="0.3" stroke="black" stroke-width="0.05" width="1.2" x="10" y="32.95" /><rect fill="#D4AA00" height="0.3" stroke="black" stroke-width="0.05" width="1.2" x="10" y="33.45" /><rect fill="#D4AA00" height="0.3" stroke="black" stroke-width="0.05" width="1.2" x="10" y="33.95" /><rect fill="#D4AA00" height="0.3" stroke="black" stroke-width="0.05" width="1.2" x="35.5" y="12.45" /><rect fill="#D4AA00" height="0.3" stroke="black" stroke-width="0.05" width="1.2" x="35.5" y="12.95" /><rect fill="#D4AA00" height="0.3" stroke="black" stroke-width="0.05" width="1.2" x="35.5" y="13.45" /><rect fill="#D4AA00" height="0.3" stroke="black" stroke-width="0.05" width="1.2" x="35.5" y="13.95" /><rect fill="#D4AA00" height="0.3" stroke="black" stroke-width="0.05" width="1.2" x="35.5" y="14.45" /><rect fill="#D4AA00" height="0.3" stroke="black" stroke-width="0.05" width="1.2" x="35.5" y="14.95" /><rect fill="#D4AA00" height="0.3" stroke="black" stroke-width="0.05" width="1.2" x="35.5" y="15.45" /><rect fill="#D4AA00" height="0.3" stroke="black" stroke-width="0.05" width="1.2" x="35.5" y="15.95" /><rect fill="#D4AA00" height="0.3" stroke="black" stroke-width="0.05" width="1.2" x="35.5" y="16.45" /><rect fill="#D4AA00" height="0.3" stroke="black" stroke-width="0.05" width="1.2" x="35.5" y="16.95" /><rect fill="#D4AA00" height="0.3" stroke="black" stroke-width="0.05" width="1.2" x="35.5" y="17.45" /><rect fill="#D4AA00" height="0.3" stroke="black" stroke-width="0.05" width="1.2" x="35.5" y="17.95" /><rect fill="#D4AA00" height="0.3" stroke="black" stroke-width="0.05" width="1.2" x="35.5" y="18.45" /><rect fill="#D4AA00" height="0.3" stroke="black" stroke-width="0.05" width="1.2" x="35.5" y="18.95" /><rect fill="#D4AA00" height="0.3" stroke="black" stroke-width="0.05" width="1.2" x="35.5" y="19.45" /><rect fill="#D4AA00" height="0.3" stroke="black" stroke-width="0.05" width="1.2" x="35.5" y="19.95" /><rect fill="#D4AA00" height="0.3" stroke="black" stroke-width="0.05" width="1.2" x="35.5" y="20.45" /><rect fill="#D4AA00" height="0.3" stroke="black" stroke-width="0.05" width="1.2" x="35.5" y="20.95" /><rect fill="#D4AA00" height="0.3" stroke="black" stroke-width="0.05" width="1.2" x="35.5" y="21.45" /><rect fill="#D4AA00" height="0.3" stroke="black" stroke-width="0.05" width="1.2" x="35.5" y="21.95" /><rect fill="#D4AA00" height="0.3" stroke="black" stroke-width="0.05" width="1.2" x="35.5" y="22.45" /><rect fill="#D4AA00" height="0.3" stroke="black" stroke-width="0.05" width="1.2" x="35.5" y="22.95" /><rect fill="#D4AA00" height="0.3" stroke="black" stroke-width="0.05" width="1.2" x="35.5" y="23.45" /><rect fill="#D4AA00" height="0.3" stroke="black" stroke-width="0.05" width="1.2" x="35.5" y="23.95" /><rect fill="#D4AA00" height="0.3" stroke="black" stroke-width="0.05" width="1.2" x="35.5" y="24.45" /><rect fill="#D4AA00" height="0.3" stroke="black" stroke-width="0.05" width="1.2" x="35.5" y="24.95" /><rect fill="#D4AA00" height="0.3" stroke="black" stroke-width="0.05" width="1.2" x="35.5" y="25.45" /><rect fill="#D4AA00" height="0.3" stroke="black" stroke-width="0.05" width="1.2" x="35.5" y="25.95" /><rect fill="#D4AA00" height="0.3" stroke="black" stroke-width="0.05" width="1.2" x="35.5" y="26.45" /><rect fill="#D4AA00" height="0.3" stroke="black" stroke-width="0.05" width="1.2" x="35.5" y="26.95" /><rect fill="#D4AA00" height="0.3" stroke="black" stroke-width="0.05" width="1.2" x="35.5" y="27.45" /><rect fill="#D4AA00" height="0.3" stroke="black" stroke-width="0.05" width="1.2" x="35.5" y="27.95" /><rect fill="#D4AA00" height="0.3" stroke="black" stroke-width="0.05" width="1.2" x="35.5" y="28.45" /><rect fill="#D4AA00" height="0.3" stroke="black" stroke-width="0.05" width="1.2" x="35.5" y="28.95" /><rect fill="#D4AA00" height="0.3" stroke="black" stroke-width="0.05" width="1.2" x="35.5" y="29.45" /><rect fill="#D4AA00" height="0.3" stroke="black" stroke-width="0.05" width="1.2" x="35.5" y="29.95" /><rect fill="#D4AA00" height="0.3" stroke="black" stroke-width="0.05" width="1.2" x="35.5" y="30.45" /><rect fill="#D4AA00" height="0.3" stroke="black" stroke-width="0.05" width="1.2" x="35.5" y="30.95" /><rect fill="#D4AA00" height="0.3" stroke="black" stroke-width="0.05" width="1.2" x="35.5" y="31.45" /><rect fill="#D4AA00" height="0.3" stroke="black" stroke-width="0.05" width="1.2" x="35.5" y="31.95" /><rect fill="#D4AA00" height="0.3" stroke="black" stroke-width="0.05" width="1.2" x="35.5" y="32.45" /><rect fill="#D4AA00" height="0.3" stroke="black" stroke-width="0.05" width="1.2" x="35.5" y="32.95" /><rect fill="#D4AA00" height="0.3" stroke="black" stroke-width="0.05" width="1.2" x="35.5" y="33.45" /><rect fill="#D4AA00" height="0.3" stroke="black" stroke-width="0.05" width="1.2" x="35.5" y="33.95" /></g><g id="part"><rect fill="#999999" height="1.0" stroke="black" stroke-width="0.05" width="0.22" x="12.489999999999998" y="10.350000000000001" /><rect fill="#999999" height="1.0" stroke="black" stroke-width="0.05" width="0.22" x="12.989999999999998" y="10.350000000000001" /><rect fill="#999999" height="1.0" stroke="black" stroke-width="0.05" width="0.22" x="13.489999999999998" y="10.350000000000001" /><rect fill="#999999" height="1.0" stroke="black" stroke-width="0.05" width="0.22" x="13.989999999999998" y="10.350000000000001" /><rect fill="#999999" height="1.0" stroke="black" stroke-width="0.05" width="0.22" x="14.489999999999998" y="10.350000000000001" /><rect fill="#999999" height="1.0" stroke="black" stroke-width="0.05" width="0.22" x="14.989999999999998" y="10.350000000000001" /><rect fill="#999999" height="1.0" stroke="black" stroke-width="0.05" width="0.22" x="15.489999999999998" y="10.350000000000001" /><rect fill="#999999" height="1.0" stroke="black" stroke-width="0.05" width="0.22" x="15.989999999999998" y="10.350000000000001" /><rect fill="#999999" height="1.0" stroke="black" stroke-width="0.05" width="0.22" x="16.49" y="10.350000000000001" /><rect fill="#999999" height="1.0" stroke="black" stroke-width="0.05" width="0.22" x="16.99" y="10.350000000000001" /><rect fill="#999999" height="1.0" stroke="black" stroke-width="0.05" width="0.22" x="17.49" y="10.350000000000001" /><rect fill="#999999" height="1.0" stroke="black" stroke-width="0.05" width="0.22" x="17.99" y="10.350000000000001" /><rect fill="#999999" height="1.0" stroke="black" stroke-width="0.05" width="0.22" x="18.49" y="10.350000000000001" /><rect fill="#999999" height="1.0" stroke="black" stroke-width="0.05" width="0.22" x="18.99" y="10.350000000000001" /><rect fill="#999999" height="1.0" stroke="black" stroke-width="0.05" width="0.22" x="19.49" y="10.350000000000001" /><rect fill="#999999" height="1.0" stroke="black" stroke-width="0.05" width="0.22" x="19.99" y="10.350000000000001" /><rect fill="#999999" height="1.0" stroke="black" stroke-width="0.05" width="0.22" x="20.49" y="10.350000000000001" /><rect fill="#999999" height="1.0" stroke="black" stroke-width="0.05" width="0.22" x="20.99" y="10.350000000000001" /><rect fill="#999999" height="1.0" stroke="black" stroke-width="0.05" width="0.22" x="21.49" y="10.350000000000001" /><rect fill="#999999" height="1.0" stroke="black" stroke-width="0.05" width="0.22" x="21.99" y="10.350000000000001" /><rect fill="#999999" height="1.0" stroke="black" stroke-width="0.05" width="0.22" x="22.49" y="10.350000000000001" /><rect fill="#999999" height="1.0" stroke="black" stroke-width="0.05" width="0.22" x="22.99" y="10.350000000000001" /><rect fill="#999999" height="1.0" stroke="black" stroke-width="0.05" width="0.22" x="23.49" y="10.350000000000001" /><rect fill="#999999" height="1.0" stroke="black" stroke-width="0.05" width="0.22" x="23.99" y="10.350000000000001" /><rect fill="#999999" height="1.0" stroke="black" stroke-width="0.05" width="0.22" x="24.49" y="10.350000000000001" /><rect fill="#999999" height="1.0" stroke="black" stroke-width="0.05" width="0.22" x="24.99" y="10.350000000000001" /><rect fill="#999999" height="1.0" stroke="black" stroke-width="0.05" width="0.22" x="25.49" y="10.350000000000001" /><rect fill="#999999" height="1.0" stroke="black" stroke-width="0.05" width="0.22" x="25.99" y="10.350000000000001" /><rect fill="#999999" height="1.0" stroke="black" stroke-width="0.05" width="0.22" x="26.49" y="10.350000000000001" /><rect fill="#999999" height="1.0" stroke="black" stroke-width="0.05" width="0.22" x="26.99" y="10.350000000000001" /><rect fill="#999999" height="1.0" stroke="black" stroke-width="0.05" width="0.22" x="27.49" y="10.350000000000001" /><rect fill="#999999" height="1.0" stroke="black" stroke-width="0.05" width="0.22" x="27.99" y="10.350000000000001" /><rect fill="#999999" height="1.0" stroke="black" stroke-width="0.05" width="0.22" x="28.49" y="10.350000000000001" /><rect fill="#999999" height="1.0" stroke="black" stroke-width="0.05" width="0.22" x="28.99" y="10.350000000000001" /><rect fill="#999999" height="1.0" stroke="black" stroke-width="0.05" width="0.22" x="29.49" y="10.350000000000001" /><rect fill="#999999" height="1.0" stroke="black" stroke-width="0.05" width="0.22" x="29.99" y="10.350000000000001" /><rect fill="#999999" height="1.0" stroke="black" stroke-width="0.05" width="0.22" x="30.49" y="10.350000000000001" /><rect fill="#999999" height="1.0" stroke="black" stroke-width="0.05" width="0.22" x="30.99" y="10.350000000000001" /><rect fill="#999999" height="1.0" stroke="black" stroke-width="0.05" width="0.22" x="31.49" y="10.350000000000001" /><rect fill="#999999" height="1.0" stroke="black" stroke-width="0.05" width="0.22" x="31.99" y="10.350000000000001" /><rect fill="#999999" height="1.0" stroke="black" stroke-width="0.05" width="0.22" x="32.489999999999995" y="10.350000000000001" /><rect fill="#999999" height="1.0" stroke="black" stroke-width="0.05" width="0.22" x="32.989999999999995" y="10.350000000000001" /><rect fill="#999999" height="1.0" stroke="black" stroke-width="0.05" width="0.22" x="33.489999999999995" y="10.350000000000001" /><rect fill="#999999" height="1.0" stroke="black" stroke-width="0.05" width="0.22" x="33.989999999999995" y="10.350000000000001" /><rect fill="#999999" height="1.0" stroke="black" stroke-width="0.05" width="0.22" x="12.489999999999998" y="35.35" /><rect fill="#999999" height="1.0" stroke="black" stroke-width="0.05" width="0.22" x="12.989999999999998" y="35.35" /><rect fill="#999999" height="1.0" stroke="black" stroke-width="0.05" width="0.22" x="13.489999999999998" y="35.35" /><rect fill="#999999" height="1.0" stroke="black" stroke-width="0.05" width="0.22" x="13.989999999999998" y="35.35" /><rect fill="#999999" height="1.0" stroke="black" stroke-width="0.05" width="0.22" x="14.489999999999998" y="35.35" /><rect fill="#999999" height="1.0" stroke="black" stroke-width="0.05" width="0.22" x="14.989999999999998" y="35.35" /><rect fill="#999999" height="1.0" stroke="black" stroke-width="0.05" width="0.22" x="15.489999999999998" y="35.35" /><rect fill="#999999" height="1.0" stroke="black" stroke-width="0.05" width="0.22" x="15.989999999999998" y="35.35" /><rect fill="#999999" height="1.0" stroke="black" stroke-width="0.05" width="0.22" x="16.49" y="35.35" /><rect fill="#999999" height="1.0" stroke="black" stroke-width="0.05" width="0.22" x="16.99" y="35.35" /><rect fill="#999999" height="1.0" stroke="black" stroke-width="0.05" width="0.22" x="17.49" y="35.35" /><rect fill="#999999" height="1.0" stroke="black" stroke-width="0.05" width="0.22" x="17.99" y="35.35" /><rect fill="#999999" height="1.0" stroke="black" stroke-width="0.05" width="0.22" x="18.49" y="35.35" /><rect fill="#999999" height="1.0" stroke="black" stroke-width="0.05" width="0.22" x="18.99" y="35.35" /><rect fill="#999999" height="1.0" stroke="black" stroke-width="0.05" width="0.22" x="19.49" y="35.35" /><rect fill="#999999" height="1.0" stroke="black" stroke-width="0.05" width="0.22" x="19.99" y="35.35" /><rect fill="#999999" height="1.0" stroke="black" stroke-width="0.05" width="0.22" x="20.49" y="35.35" /><rect fill="#999999" height="1.0" stroke="black" stroke-width="0.05" width="0.22" x="20.99" y="35.35" /><rect fill="#999999" height="1.0" stroke="black" stroke-width="0.05" width="0.22" x="21.49" y="35.35" /><rect fill="#999999" height="1.0" stroke="black" stroke-width="0.05" width="0.22" x="21.99" y="35.35" /><rect fill="#999999" height="1.0" stroke="black" stroke-width="0.05" width="0.22" x="22.49" y="35.35" /><rect fill="#999999" height="1.0" stroke="black" stroke-width="0.05" width="0.22" x="22.99" y="35.35" /><rect fill="#999999" height="1.0" stroke="black" stroke-width="0.05" width="0.22" x="23.49" y="35.35" /><rect fill="#999999" height="1.0" stroke="black" stroke-width="0.05" width="0.22" x="23.99" y="35.35" /><rect fill="#999999" height="1.0" stroke="black" stroke-width="0.05" width="0.22" x="24.49" y="35.35" /><rect fill="#999999" height="1.0" stroke="black" stroke-width="0.05" width="0.22" x="24.99" y="35.35" /><rect fill="#999999" height="1.0" stroke="black" stroke-width="0.05" width="0.22" x="25.49" y="35.35" /><rect fill="#999999" height="1.0" stroke="black" stroke-width="0.05" width="0.22" x="25.99" y="35.35" /><rect fill="#999999" height="1.0" stroke="black" stroke-width="0.05" width="0.22" x="26.49" y="35.35" /><rect fill="#999999" height="1.0" stroke="black" stroke-width="0.05" width="0.22" x="26.99" y="35.35" /><rect fill="#999999" height="1.0" stroke="black" stroke-width="0.05" width="0.22" x="27.49" y="35.35" /><rect fill="#999999" height="1.0" stroke="black" stroke-width="0.05" width="0.22" x="27.99" y="35.35" /><rect fill="#999999" height="1.0" stroke="black" stroke-width="0.05" width="0.22" x="28.49" y="35.35" /><rect fill="#999999" height="1.0" stroke="black" stroke-width="0.05" width="0.22" x="28.99" y="35.35" /><rect fill="#999999" height="1.0" stroke="black" stroke-width="0.05" width="0.22" x="29.49" y="35.35" /><rect fill="#999999" height="1.0" stroke="black" stroke-width="0.05" width="0.22" x="29.99" y="35.35" /><rect fill="#999999" height="1.0" stroke="black" stroke-width="0.05" width="0.22" x="30.49" y="35.35" /><rect fill="#999999" height="1.0" stroke="black" stroke-width="0.05" width="0.22" x="30.99" y="35.35" /><rect fill="#999999" height="1.0" stroke="black" stroke-width="0.05" width="0.22" x="31.49" y="35.35" /><rect fill="#999999" height="1.0" stroke="black" stroke-width="0.05" width="0.22" x="31.99" y="35.35" /><rect fill="#999999" height="1.0" stroke="black" stroke-width="0.05" width="0.22" x="32.489999999999995" y="35.35" /><rect fill="#999999" height="1.0" stroke="black" stroke-width="0.05" width="0.22" x="32.989999999999995" y="35.35" /><rect fill="#999999" height="1.0" stroke="black" stroke-width="0.05" width="0.22" x="33.489999999999995" y="35.35" /><rect fill="#999999" height="1.0" stroke="black" stroke-width="0.05" width="0.22" x="33.989999999999995" y="35.35" /><rect fill="#999999" height="0.22" stroke="black" stroke-width="0.05" width="1.0" x="10.350000000000001" y="12.489999999999998" /><rect fill="#999999" height="0.22" stroke="black" stroke-width="0.05" width="1.0" x="10.350000000000001" y="12.989999999999998" /><rect fill="#999999" height="0.22" stroke="black" stroke-width="0.05" width="1.0" x="10.350000000000001" y="13.489999999999998" /><rect fill="#999999" height="0.22" stroke="black" stroke-width="0.05" width="1.0" x="10.350000000000001" y="13.989999999999998" /><rect fill="#999999" height="0.22" stroke="black" stroke-width="0.05" width="1.0" x="10.350000000000001" y="14.489999999999998" /><rect fill="#999999" height="0.22" stroke="black" stroke-width="0.05" width="1.0" x="10.350000000000001" y="14.989999999999998" /><rect fill="#999999" height="0.22" stroke="black" stroke-width="0.05" width="1.0" x="10.350000000000001" y="15.489999999999998" /><rect fill="#999999" height="0.22" stroke="black" stroke-width="0.05" width="1.0" x="10.350000000000001" y="15.989999999999998" /><rect fill="#999999" height="0.22" stroke="black" stroke-width="0.05" width="1.0" x="10.350000000000001" y="16.49" /><rect fill="#999999" height="0.22" stroke="black" stroke-width="0.05" width="1.0" x="10.350000000000001" y="16.99" /><rect fill="#999999" height="0.22" stroke="black" stroke-width="0.05" width="1.0" x="10.350000000000001" y="17.49" /><rect fill="#999999" height="0.22" stroke="black" stroke-width="0.05" width="1.0" x="10.350000000000001" y="17.99" /><rect fill="#999999" height="0.22" stroke="black" stroke-width="0.05" width="1.0" x="10.350000000000001" y="18.49" /><rect fill="#999999" height="0.22" stroke="black" stroke-width="0.05" width="1.0" x="10.350000000000001" y="18.99" /><rect fill="#999999" height="0.22" stroke="black" stroke-width="0.05" width="1.0" x="10.350000000000001" y="19.49" /><rect fill="#999999" height="0.22" stroke="black" stroke-width="0.05" width="1.0" x="10.350000000000001" y="19.99" /><rect fill="#999999" height="0.22" stroke="black" stroke-width="0.05" width="1.0" x="10.350000000000001" y="20.49" /><rect fill="#999999" height="0.22" stroke="black" stroke-width="0.05" width="1.0" x="10.350000000000001" y="20.99" /><rect fill="#999999" height="0.22" stroke="black" stroke-width="0.05" width="1.0" x="10.350000000000001" y="21.49" /><rect fill="#999999" height="0.22" stroke="black" stroke-width="0.05" width="1.0" x="10.350000000000001" y="21.99" /><rect fill="#999999" height="0.22" stroke="black" stroke-width="0.05" width="1.0" x="10.350000000000001" y="22.49" /><rect fill="#999999" height="0.22" stroke="black" stroke-width="0.05" width="1.0" x="10.350000000000001" y="22.99" /><rect fill="#999999" height="0.22" stroke="black" stroke-width="0.05" width="1.0" x="10.350000000000001" y="23.49" /><rect fill="#999999" height="0.22" stroke="black" stroke-width="0.05" width="1.0" x="10.350000000000001" y="23.99" /><rect fill="#999999" height="0.22" stroke="black" stroke-width="0.05" width="1.0" x="10.350000000000001" y="24.49" /><rect fill="#999999" height="0.22" stroke="black" stroke-width="0.05" width="1.0" x="10.350000000000001" y="24.99" /><rect fill="#999999" height="0.22" stroke="black" stroke-width="0.05" width="1.0" x="10.350000000000001" y="25.49" /><rect fill="#999999" height="0.22" stroke="black" stroke-width="0.05" width="1.0" x="10.350000000000001" y="25.99" /><rect fill="#999999" height="0.22" stroke="black" stroke-width="0.05" width="1.0" x="10.350000000000001" y="26.49" /><rect fill="#999999" height="0.22" stroke="black" stroke-width="0.05" width="1.0" x="10.350000000000001" y="26.99" /><rect fill="#999999" height="0.22" stroke="black" stroke-width="0.05" width="1.0" x="10.350000000000001" y="27.49" /><rect fill="#999999" height="0.22" stroke="black" stroke-width="0.05" width="1.0" x="10.350000000000001" y="27.99" /><rect fill="#999999" height="0.22" stroke="black" stroke-width="0.05" width="1.0" x="10.350000000000001" y="28.49" /><rect fill="#999999" height="0.22" stroke="black" stroke-width="0.05" width="1.0" x="10.350000000000001" y="28.99" /><rect fill="#999999" height="0.22" stroke="black" stroke-width="0.05" width="1.0" x="10.350000000000001" y="29.49" /><rect fill="#999999" height="0.22" stroke="black" stroke-width="0.05" width="1.0" x="10.350000000000001" y="29.99" /><rect fill="#999999" height="0.22" stroke="black" stroke-width="0.05" width="1.0" x="10.350000000000001" y="30.49" /><rect fill="#999999" height="0.22" stroke="black" stroke-width="0.05" width="1.0" x="10.350000000000001" y="30.99" /><rect fill="#999999" height="0.22" stroke="black" stroke-width="0.05" width="1.0" x="10.350000000000001" y="31.49" /><rect fill="#999999" height="0.22" stroke="black" stroke-width="0.05" width="1.0" x="10.350000000000001" y="31.99" /><rect fill="#999999" height="0.22" stroke="black" stroke-width="0.05" width="1.0" x="10.350000000000001" y="32.489999999999995" /><rect fill="#999999" height="0.22" stroke="black" stroke-width="0.05" width="1.0" x="10.350000000000001" y="32.989999999999995" /><rect fill="#999999" height="0.22" stroke="black" stroke-width="0.05" width="1.0" x="10.350000000000001" y="33.489999999999995" /><rect fill="#999999" height="0.22" stroke="black" stroke-width="0.05" width="1.0" x="10.350000000000001" y="33.989999999999995" /><rect fill="#999999" height="0.22" stroke="black" stroke-width="0.05" width="1.0" x="35.35" y="12.489999999999998" /><rect fill="#999999" height="0.22" stroke="black" stroke-width="0.05" width="1.0" x="35.35" y="12.989999999999998" /><rect fill="#999999" height="0.22" stroke="black" stroke-width="0.05" width="1.0" x="35.35" y="13.489999999999998" /><rect fill="#999999" height="0.22" stroke="black" stroke-width="0.05" width="1.0" x="35.35" y="13.989999999999998" /><rect fill="#999999" height="0.22" stroke="black" stroke-width="0.05" width="1.0" x="35.35" y="14.489999999999998" /><rect fill="#999999" height="0.22" stroke="black" stroke-width="0.05" width="1.0" x="35.35" y="14.989999999999998" /><rect fill="#999999" height="0.22" stroke="black" stroke-width="0.05" width="1.0" x="35.35" y="15.489999999999998" /><rect fill="#999999" height="0.22" stroke="black" stroke-width="0.05" width="1.0" x="35.35" y="15.989999999999998" /><rect fill="#999999" height="0.22" stroke="black" stroke-width="0.05" width="1.0" x="35.35" y="16.49" /><rect fill="#999999" height="0.22" stroke="black" stroke-width="0.05" width="1.0" x="35.35" y="16.99" /><rect fill="#999999" height="0.22" stroke="black" stroke-width="0.05" width="1.0" x="35.35" y="17.49" /><rect fill="#999999" height="0.22" stroke="black" stroke-width="0.05" width="1.0" x="35.35" y="17.99" /><rect fill="#999999" height="0.22" stroke="black" stroke-width="0.05" width="1.0" x="35.35" y="18.49" /><rect fill="#999999" height="0.22" stroke="black" stroke-width="0.05" width="1.0" x="35.35" y="18.99" /><rect fill="#999999" height="0.22" stroke="black" stroke-width="0.05" width="1.0" x="35.35" y="19.49" /><rect fill="#999999" height="0.22" stroke="black" stroke-width="0.05" width="1.0" x="35.35" y="19.99" /><rect fill="#999999" height="0.22" stroke="black" stroke-width="0.05" width="1.0" x="35.35" y="20.49" /><rect fill="#999999" height="0.22" stroke="black" stroke-width="0.05" width="1.0" x="35.35" y="20.99" /><rect fill="#999999" height="0.22" stroke="black" stroke-width="0.05" width="1.0" x="35.35" y="21.49" /><rect fill="#999999" height="0.22" stroke="black" stroke-width="0.05" width="1.0" x="35.35" y="21.99" /><rect fill="#999999" height="0.22" stroke="black" stroke-width="0.05" width="1.0" x="35.35" y="22.49" /><rect fill="#999999" height="0.22" stroke="black" stroke-width="0.05" width="1.0" x="35.35" y="22.99" /><rect fill="#999999" height="0.22" stroke="black" stroke-width="0.05" width="1.0" x="35.35" y="23.49" /><rect fill="#999999" height="0.22" stroke="black" stroke-width="0.05" width="1.0" x="35.35" y="23.99" /><rect fill="#999999" height="0.22" stroke="black" stroke-width="0.05" width="1.0" x="35.35" y="24.49" /><rect fill="#999999" height="0.22" stroke="black" stroke-width="0.05" width="1.0" x="35.35" y="24.99" /><rect fill="#999999" height="0.22" stroke="black" stroke-width="0.05" width="1.0" x="35.35" y="25.49" /><rect fill="#999999" height="0.22" stroke="black" stroke-width="0.05" width="1.0" x="35.35" y="25.99" /><rect fill="#999999" height="0.22" stroke="black" stroke-width="0.05" width="1.0" x="35.35" y="26.49" /><rect fill="#999999" height="0.22" stroke="black" stroke-width="0.05" width="1.0" x="35.35" y="26.99" /><rect fill="#999999" height="0.22" stroke="black" stroke-width="0.05" width="1.0" x="35.35" y="27.49" /><rect fill="#999999" height="0.22" stroke="black" stroke-width="0.05" width="1.0" x="35.35" y="27.99" /><rect fill="#999999" height="0.22" stroke="black" stroke-width="0.05" width="1.0" x="35.35" y="28.49" /><rect fill="#999999" height="0.22" stroke="black" stroke-width="0.05" width="1.0" x="35.35" y="28.99" /><rect fill="#999999" height="0.22" stroke="black" stroke-width="0.05" width="1.0" x="35.35" y="29.49" /><rect fill="#999999" height="0.22" stroke="black" stroke-width="0.05" width="1.0" x="35.35" y="29.99" /><rect fill="#999999" height="0.22" stroke="black" stroke-width="0.05" width="1.0" x="35.35" y="30.49" /><rect fill="#999999" height="0.22" stroke="black" stroke-width="0.05" width="1.0" x="35.35" y="30.99" /><rect fill="#999999" height="0.22" stroke="black" stroke-width="0.05" width="1.0" x="35.35" y="31.49" /><rect fill="#999999" height="0.22" stroke="black" stroke-width="0.05" width="1.0" x="35.35" y="31.99" /><rect fill="#999999" height="0.22" stroke="black" stroke-width="0.05" width="1.0" x="35.35" y="32.489999999999995" /><rect fill="#999999" height="0.22" stroke="black" stroke-width="0.05" width="1.0" x="35.35" y="32.989999999999995" /><rect fill="#999999" height="0.22" stroke="black" stroke-width="0.05" width="1.0" x="35.35" y="33.489999999999995" /><rect fill="#999999" height="0.22" stroke="black" stroke-width="0.05" width="1.0" x="35.35" y="33.989999999999995" /><polygon fill="#333333" points="11.350000000000001,12.100000000000001 12.100000000000001,11.350000000000001 34.6,11.350000000000001 35.35,12.100000000000001 35.35,34.6 34.6,35.35 12.100000000000001,35.35 11.350000000000001,34.6" stroke="black" stroke-width="0.05" /><circle cx="12.350000000000001" cy="34.35" fill="#333333" r="0.5" stroke="black" stroke-width="0.05" /></g></svg>