<?xml version="1.0" encoding="utf-8" ?>
<svg baseProfile="full" height="32.7" version="1.1" width="32.7" xmlns="http://www.w3.org/2000/svg" xmlns:ev="http://www.w3.org/2001/xml-events" xmlns:xlink="http://www.w3.org/1999/xlink"><defs /><g id="pads"><rect fill="#D4AA00" height="1.2" stroke="black" stroke-width="0.05" width="0.3" x="12.45" y="10" /><rect fill="#D4AA00" height="1.2" stroke="black" stroke-width="0.05" width="0.3" x="12.95" y="10" /><rect fill="#D4AA00" height="1.2" stroke="black" stroke-width="0.05" width="0.3" x="13.45" y="10" /><rect fill="#D4AA00" height="1.2" stroke="black" stroke-width="0.05" width="0.3" x="13.95" y="10" /><rect fill="#D4AA00" height="1.2" stroke="black" stroke-width="0.05" width="0.3" x="14.45" y="10" /><rect fill="#D4AA00" height="1.2" stroke="black" stroke-width="0.05" width="0.3" x="14.95" y="10" /><rect fill="#D4AA00" height="1.2" stroke="black" stroke-width="0.05" width="0.3" x="15.45" y="10" /><rect fill="#D4AA00" height="1.2" stroke="black" stroke-width="0.05" width="0.3" x="15.95" y="10" /><rect fill="#D4AA00" height="1.2" stroke="black" stroke-width="0.05" width="0.3" x="16.45" y="10" /><rect fill="#D4AA00" height="1.2" stroke="black" stroke-width="0.05" width="0.3" x="16.95" y="10" /><rect fill="#D4AA00" height="1.2" stroke="black" stroke-width="0.05" width="0.3" x="17.45" y="10" /><rect fill="#D4AA00" height="1.2" stroke="black" stroke-width="0.05" width="0.3" x="17.95" y="10" /><rect fill="#D4AA00" height="1.2" stroke="black" stroke-width="0.05" width="0.3" x="18.45" y="10" /><rect fill="#D4AA00" height="1.2" stroke="black" stroke-width="0.05" width="0.3" x="18.95" y="10" /><rect fill="#D4AA00" height="1.2" stroke="black" stroke-width="0.05" width="0.3" x="19.45" y="10" /><rect fill="#D4AA00" height="1.2" stroke="black" stroke-width="0.05" width="0.3" x="19.95" y="10" /><rect fill="#D4AA00" height="1.2" stroke="black" stroke-width="0.05" width="0.3" x="12.45" y="21.5" /><rect fill="#D4AA00" height="1.2" stroke="black" stroke-width="0.05" width="0.3" x="12.95" y="21.5" /><rect fill="#D4AA00" height="1.2" stroke="black" stroke-width="0.05" width="0.3" x="13.45" y="21.5" /><rect fill="#D4AA00" height="1.2" stroke="black" stroke-width="0.05" width="0.3" x="13.95" y="21.5" /><rect fill="#D4AA00" height="1.2" stroke="black" stroke-width="0.05" width="0.3" x="14.45" y="21.5" /><rect fill="#D4AA00" height="1.2" stroke="black" stroke-width="0.05" width="0.3" x="14.95" y="21.5" /><rect fill="#D4AA00" height="1.2" stroke="black" stroke-width="0.05" width="0.3" x="15.45" y="21.5" /><rect fill="#D4AA00" height="1.2" stroke="black" stroke-width="0.05" width="0.3" x="15.95" y="21.5" /><rect fill="#D4AA00" height="1.2" stroke="black" stroke-width="0.05" width="0.3" x="16.45" y="21.5" /><rect fill="#D4AA00" height="1.2" stroke="black" stroke-width="0.05" width="0.3" x="16.95" y="21.5" /><rect fill="#D4AA00" height="1.2" stroke="black" stroke-width="0.05" width="0.3" x="17.45" y="21.5" /><rect fill="#D4AA00" height="1.2" stroke="black" stroke-width="0.05" width="0.3" x="17.95" y="21.5" /><rect fill="#D4AA00" height="1.2" stroke="black" stroke-width="0.05" width="0.3" x="18.45" y="21.5" /><rect fill="#D4AA00" height="1.2" stroke="black" stroke-width="0.05" width="0.3" x="18.95" y="21.5" /><rect fill="#D4AA00" height="1.2" stroke="black" stroke-width="0.05" width="0.3" x="19.45" y="21.5" /><rect fill="#D4AA00" height="1.2" stroke="black" stroke-width="0.05" width="0.3" x="19.95" y="21.5" /><rect fill="#D4AA00" height="0.3" stroke="black" stroke-width="0.05" width="1.2" x="10" y="12.45" /><rect fill="#D4AA00" height="0.3" stroke="black" stroke-width="0.05" width="1.2" x="10" y="12.95" /><rect fill="#D4AA00" height="0.3" stroke="black" stroke-width="0.05" width="1.2" x="10" y="13.45" /><rect fill="#D4AA00" height="0.3" stroke="black" stroke-width="0.05" width="1.2" x="10" y="13.95" /><rect fill="#D4AA00" height="0.3" stroke="black" stroke-width="0.05" width="1.2" x="10" y="14.45" /><rect fill="#D4AA00" height="0.3" stroke="black" stroke-width="0.05" width="1.2" x="10" y="14.95" /><rect fill="#D4AA00" height="0.3" stroke="black" stroke-width="0.05" width="1.2" x="10" y="15.45" /><rect fill="#D4AA00" height="0.3" stroke="black" stroke-width="0.05" width="1.2" x="10" y="15.95" /><rect fill="#D4AA00" height="0.3" stroke="black" stroke-width="0.05" width="1.2" x="10" y="16.45" /><rect fill="#D4AA00" height="0.3" stroke="black" stroke-width="0.05" width="1.2" x="10" y="16.95" /><rect fill="#D4AA00" height="0.3" stroke="black" stroke-width="0.05" width="1.2" x="10" y="17.45" /><rect fill="#D4AA00" height="0.3" stroke="black" stroke-width="0.05" width="1.2" x="10" y="17.95" /><rect fill="#D4AA00" height="0.3" stroke="black" stroke-width="0.05" width="1.2" x="10" y="18.45" /><rect fill="#D4AA00" height="0.3" stroke="black" stroke-width="0.05" width="1.2" x="10" y="18.95" /><rect fill="#D4AA00" height="0.3" stroke="black" stroke-width="0.05" width="1.2" x="10" y="19.45" /><rect fill="#D4AA00" height="0.3" stroke="black" stroke-width="0.05" width="1.2" x="10" y="19.95" /><rect fill="#D4AA00" height="0.3" stroke="black" stroke-width="0.05" width="1.2" x="21.5" y="12.45" /><rect fill="#D4AA00" height="0.3" stroke="black" stroke-width="0.05" width="1.2" x="21.5" y="12.95" /><rect fill="#D4AA00" height="0.3" stroke="black" stroke-width="0.05" width="1.2" x="21.5" y="13.45" /><rect fill="#D4AA00" height="0.3" stroke="black" stroke-width="0.05" width="1.2" x="21.5" y="13.95" /><rect fill="#D4AA00" height="0.3" stroke="black" stroke-width="0.05" width="1.2" x="21.5" y="14.45" /><rect fill="#D4AA00" height="0.3" stroke="black" stroke-width="0.05" width="1.2" x="21.5" y="14.95" /><rect fill="#D4AA00" height="0.3" stroke="black" stroke-width="0.05" width="1.2" x="21.5" y="15.45" /><rect fill="#D4AA00" height="0.3" stroke="black" stroke-width="0.05" width="1.2" x="21.5" y="15.95" /><rect fill="#D4AA00" height="0.3" stroke="black" stroke-width="0.05" width="1.2" x="21.5" y="16.45" /><rect fill="#D4AA00" height="0.3" stroke="black" stroke-width="0.05" width="1.2" x="21.5" y="16.95" /><rect fill="#D4AA00" height="0.3" stroke="black" stroke-width="0.05" width="1.2" x="21.5" y="17.45" /><rect fill="#D4AA00" height="0.3" stroke="black" stroke-width="0.05" width="1.2" x="21.5" y="17.95" /><rect fill="#D4AA00" height="0.3" stroke="black" stroke-width="0.05" width="1.2" x="21.5" y="18.45" /><rect fill="#D4AA00" height="0.3" stroke="black" stroke-width="0.05" width="1.2" x="21.5" y="18.95" /><rect fill="#D4AA00" height="0.3" stroke="black" stroke-width="0.05" width="1.2" x="21.5" y="19.45" /><rect fill="#D4AA00" height="0.3" stroke="black" stroke-width="0.05" width="1.2" x="21.5" y="19.95" /></g><g id="part"><rect fill="#999999" height="1.0" stroke="black" stroke-width="0.05" width="0.22" x="12.489999999999998" y="10.350000000000001" /><rect fill="#999999" height="1.0" stroke="black" stroke-width="0.05" width="0.22" x="12.989999999999998" y="10.350000000000001" /><rect fill="#999999" height="1.0" stroke="black" stroke-width="0.05" width="0.22" x="13.489999999999998" y="10.350000000000001" /><rect fill="#999999" height="1.0" stroke="black" stroke-width="0.05" width="0.22" x="13.989999999999998" y="10.350000000000001" /><rect fill="#999999" height="1.0" stroke="black" stroke-width="0.05" width="0.22" x="14.489999999999998" y="10.350000000000001" /><rect fill="#999999" height="1.0" stroke="black" stroke-width="0.05" width="0.22" x="14.989999999999998" y="10.350000000000001" /><rect fill="#999999" height="1.0" stroke="black" stroke-width="0.05" width="0.22" x="15.489999999999998" y="10.350000000000001" /><rect fill="#999999" height="1.0" stroke="black" stroke-width="0.05" width="0.22" x="15.989999999999998" y="10.350000000000001" /><rect fill="#999999" height="1.0" stroke="black" stroke-width="0.05" width="0.22" x="16.49" y="10.350000000000001" /><rect fill="#999999" height="1.0" stroke="black" stroke-width="0.05" width="0.22" x="16.99" y="10.350000000000001" /><rect fill="#999999" height="1.0" stroke="black" stroke-width="0.05" width="0.22" x="17.49" y="10.350000000000001" /><rect fill="#999999" height="1.0" stroke="black" stroke-width="0.05" width="0.22" x="17.99" y="10.350000000000001" /><rect fill="#999999" height="1.0" stroke="black" stroke-width="0.05" width="0.22" x="18.49" y="10.350000000000001" /><rect fill="#999999" height="1.0" stroke="black" stroke-width="0.05" width="0.22" x="18.99" y="10.350000000000001" /><rect fill="#999999" height="1.0" stroke="black" stroke-width="0.05" width="0.22" x="19.49" y="10.350000000000001" /><rect fill="#999999" height="1.0" stroke="black" stroke-width="0.05" width="0.22" x="19.99" y="10.350000000000001" /><rect fill="#999999" height="1.0" stroke="black" stroke-width="0.05" width="0.22" x="12.489999999999998" y="21.35" /><rect fill="#999999" height="1.0" stroke="black" stroke-width="0.05" width="0.22" x="12.989999999999998" y="21.35" /><rect fill="#999999" height="1.0" stroke="black" stroke-width="0.05" width="0.22" x="13.489999999999998" y="21.35" /><rect fill="#999999" height="1.0" stroke="black" stroke-width="0.05" width="0.22" x="13.989999999999998" y="21.35" /><rect fill="#999999" height="1.0" stroke="black" stroke-width="0.05" width="0.22" x="14.489999999999998" y="21.35" /><rect fill="#999999" height="1.0" stroke="black" stroke-width="0.05" width="0.22" x="14.989999999999998" y="21.35" /><rect fill="#999999" height="1.0" stroke="black" stroke-width="0.05" width="0.22" x="15.489999999999998" y="21.35" /><rect fill="#999999" height="1.0" stroke="black" stroke-width="0.05" width="0.22" x="15.989999999999998" y="21.35" /><rect fill="#999999" height="1.0" stroke="black" stroke-width="0.05" width="0.22" x="16.49" y="21.35" /><rect fill="#999999" height="1.0" stroke="black" stroke-width="0.05" width="0.22" x="16.99" y="21.35" /><rect fill="#999999" height="1.0" stroke="black" stroke-width="0.05" width="0.22" x="17.49" y="21.35" /><rect fill="#999999" height="1.0" stroke="black" stroke-width="0.05" width="0.22" x="17.99" y="21.35" /><rect fill="#999999" height="1.0" stroke="black" stroke-width="0.05" width="0.22" x="18.49" y="21.35" /><rect fill="#999999" height="1.0" stroke="black" stroke-width="0.05" width="0.22" x="18.99" y="21.35" /><rect fill="#999999" height="1.0" stroke="black" stroke-width="0.05" width="0.22" x="19.49" y="21.35" /><rect fill="#999999" height="1.0" stroke="black" stroke-width="0.05" width="0.22" x="19.99" y="21.35" /><rect fill="#999999" height="0.22" stroke="black" stroke-width="0.05" width="1.0" x="10.350000000000001" y="12.489999999999998" /><rect fill="#999999" height="0.22" stroke="black" stroke-width="0.05" width="1.0" x="10.350000000000001" y="12.989999999999998" /><rect fill="#999999" height="0.22" stroke="black" stroke-width="0.05" width="1.0" x="10.350000000000001" y="13.489999999999998" /><rect fill="#999999" height="0.22" stroke="black" stroke-width="0.05" width="1.0" x="10.350000000000001" y="13.989999999999998" /><rect fill="#999999" height="0.22" stroke="black" stroke-width="0.05" width="1.0" x="10.350000000000001" y="14.489999999999998" /><rect fill="#999999" height="0.22" stroke="black" stroke-width="0.05" width="1.0" x="10.350000000000001" y="14.989999999999998" /><rect fill="#999999" height="0.22" stroke="black" stroke-width="0.05" width="1.0" x="10.350000000000001" y="15.489999999999998" /><rect fill="#999999" height="0.22" stroke="black" stroke-width="0.05" width="1.0" x="10.350000000000001" y="15.989999999999998" /><rect fill="#999999" height="0.22" stroke="black" stroke-width="0.05" width="1.0" x="10.350000000000001" y="16.49" /><rect fill="#999999" height="0.22" stroke="black" stroke-width="0.05" width="1.0" x="10.350000000000001" y="16.99" /><rect fill="#999999" height="0.22" stroke="black" stroke-width="0.05" width="1.0" x="10.350000000000001" y="17.49" /><rect fill="#999999" height="0.22" stroke="black" stroke-width="0.05" width="1.0" x="10.350000000000001" y="17.99" /><rect fill="#999999" height="0.22" stroke="black" stroke-width="0.05" width="1.0" x="10.350000000000001" y="18.49" /><rect fill="#999999" height="0.22" stroke="black" stroke-width="0.05" width="1.0" x="10.350000000000001" y="18.99" /><rect fill="#999999" height="0.22" stroke="black" stroke-width="0.05" width="1.0" x="10.350000000000001" y="19.49" /><rect fill="#999999" height="0.22" stroke="black" stroke-width="0.05" width="1.0" x="10.350000000000001" y="19.99" /><rect fill="#999999" height="0.22" stroke="black" stroke-width="0.05" width="1.0" x="21.35" y="12.489999999999998" /><rect fill="#999999" height="0.22" stroke="black" stroke-width="0.05" width="1.0" x="21.35" y="12.989999999999998" /><rect fill="#999999" height="0.22" stroke="black" stroke-width="0.05" width="1.0" x="21.35" y="13.489999999999998" /><rect fill="#999999" height="0.22" stroke="black" stroke-width="0.05" width="1.0" x="21.35" y="13.989999999999998" /><rect fill="#999999" height="0.22" stroke="black" stroke-width="0.05" width="1.0" x="21.35" y="14.489999999999998" /><rect fill="#999999" height="0.22" stroke="black" stroke-width="0.05" width="1.0" x="21.35" y="14.989999999999998" /><rect fill="#999999" height="0.22" stroke="black" stroke-width="0.05" width="1.0" x="21.35" y="15.489999999999998" /><rect fill="#999999" height="0.22" stroke="black" stroke-width="0.05" width="1.0" x="21.35" y="15.989999999999998" /><rect fill="#999999" height="0.22" stroke="black" stroke-width="0.05" width="1.0" x="21.35" y="16.49" /><rect fill="#999999" height="0.22" stroke="black" stroke-width="0.05" width="1.0" x="21.35" y="16.99" /><rect fill="#999999" height="0.22" stroke="black" stroke-width="0.05" width="1.0" x="21.35" y="17.49" /><rect fill="#999999" height="0.22" stroke="black" stroke-width="0.05" width="1.0" x="21.35" y="17.99" /><rect fill="#999999" height="0.22" stroke="black" stroke-width="0.05" width="1.0" x="21.35" y="18.49" /><rect fill="#999999" height="0.22" stroke="black" stroke-width="0.05" width="1.0" x="21.35" y="18.99" /><rect fill="#999999" height="0.22" stroke="black" stroke-width="0.05" width="1.0" x="21.35" y="19.49" /><rect fill="#999999" height="0.22" stroke="black" stroke-width="0.05" width="1.0" x="21.35" y="19.99" /><polygon fill="#333333" points="11.350000000000001,12.100000000000001 12.100000000000001,11.350000000000001 20.6,11.350000000000001 21.35,12.100000000000001 21.35,20.6 20.6,21.35 12.100000000000001,21.35 11.350000000000001,20.6" stroke="black" stroke-width="0.05" /><circle cx="12.350000000000001" cy="20.35" fill="#333333" r="0.5" stroke="black" stroke-width="0.05" /></g></svg>