<?xml version="1.0" encoding="utf-8" ?>
<svg baseProfile="full" height="36.7" version="1.1" width="36.7" xmlns="http://www.w3.org/2000/svg" xmlns:ev="http://www.w3.org/2001/xml-events" xmlns:xlink="http://www.w3.org/1999/xlink"><defs /><g id="pads"><rect fill="#D4AA00" height="1.2" stroke="black" stroke-width="0.05" width="0.3" x="12.2" y="10" /><rect fill="#D4AA00" height="1.2" stroke="black" stroke-width="0.05" width="0.3" x="12.7" y="10" /><rect fill="#D4AA00" height="1.2" stroke="black" stroke-width="0.05" width="0.3" x="13.2" y="10" /><rect fill="#D4AA00" height="1.2" stroke="black" stroke-width="0.05" width="0.3" x="13.7" y="10" /><rect fill="#D4AA00" height="1.2" stroke="black" stroke-width="0.05" width="0.3" x="14.2" y="10" /><rect fill="#D4AA00" height="1.2" stroke="black" stroke-width="0.05" width="0.3" x="14.7" y="10" /><rect fill="#D4AA00" height="1.2" stroke="black" stroke-width="0.05" width="0.3" x="15.2" y="10" /><rect fill="#D4AA00" height="1.2" stroke="black" stroke-width="0.05" width="0.3" x="15.7" y="10" /><rect fill="#D4AA00" height="1.2" stroke="black" stroke-width="0.05" width="0.3" x="16.2" y="10" /><rect fill="#D4AA00" height="1.2" stroke="black" stroke-width="0.05" width="0.3" x="16.7" y="10" /><rect fill="#D4AA00" height="1.2" stroke="black" stroke-width="0.05" width="0.3" x="17.2" y="10" /><rect fill="#D4AA00" height="1.2" stroke="black" stroke-width="0.05" width="0.3" x="17.7" y="10" /><rect fill="#D4AA00" height="1.2" stroke="black" stroke-width="0.05" width="0.3" x="18.2" y="10" /><rect fill="#D4AA00" height="1.2" stroke="black" stroke-width="0.05" width="0.3" x="18.7" y="10" /><rect fill="#D4AA00" height="1.2" stroke="black" stroke-width="0.05" width="0.3" x="19.2" y="10" /><rect fill="#D4AA00" height="1.2" stroke="black" stroke-width="0.05" width="0.3" x="19.7" y="10" /><rect fill="#D4AA00" height="1.2" stroke="black" stroke-width="0.05" width="0.3" x="20.2" y="10" /><rect fill="#D4AA00" height="1.2" stroke="black" stroke-width="0.05" width="0.3" x="20.7" y="10" /><rect fill="#D4AA00" height="1.2" stroke="black" stroke-width="0.05" width="0.3" x="21.2" y="10" /><rect fill="#D4AA00" height="1.2" stroke="black" stroke-width="0.05" width="0.3" x="21.7" y="10" /><rect fill="#D4AA00" height="1.2" stroke="black" stroke-width="0.05" width="0.3" x="22.2" y="10" /><rect fill="#D4AA00" height="1.2" stroke="black" stroke-width="0.05" width="0.3" x="22.7" y="10" /><rect fill="#D4AA00" height="1.2" stroke="black" stroke-width="0.05" width="0.3" x="23.2" y="10" /><rect fill="#D4AA00" height="1.2" stroke="black" stroke-width="0.05" width="0.3" x="23.7" y="10" /><rect fill="#D4AA00" height="1.2" stroke="black" stroke-width="0.05" width="0.3" x="24.2" y="10" /><rect fill="#D4AA00" height="1.2" stroke="black" stroke-width="0.05" width="0.3" x="12.2" y="25.5" /><rect fill="#D4AA00" height="1.2" stroke="black" stroke-width="0.05" width="0.3" x="12.7" y="25.5" /><rect fill="#D4AA00" height="1.2" stroke="black" stroke-width="0.05" width="0.3" x="13.2" y="25.5" /><rect fill="#D4AA00" height="1.2" stroke="black" stroke-width="0.05" width="0.3" x="13.7" y="25.5" /><rect fill="#D4AA00" height="1.2" stroke="black" stroke-width="0.05" width="0.3" x="14.2" y="25.5" /><rect fill="#D4AA00" height="1.2" stroke="black" stroke-width="0.05" width="0.3" x="14.7" y="25.5" /><rect fill="#D4AA00" height="1.2" stroke="black" stroke-width="0.05" width="0.3" x="15.2" y="25.5" /><rect fill="#D4AA00" height="1.2" stroke="black" stroke-width="0.05" width="0.3" x="15.7" y="25.5" /><rect fill="#D4AA00" height="1.2" stroke="black" stroke-width="0.05" width="0.3" x="16.2" y="25.5" /><rect fill="#D4AA00" height="1.2" stroke="black" stroke-width="0.05" width="0.3" x="16.7" y="25.5" /><rect fill="#D4AA00" height="1.2" stroke="black" stroke-width="0.05" width="0.3" x="17.2" y="25.5" /><rect fill="#D4AA00" height="1.2" stroke="black" stroke-width="0.05" width="0.3" x="17.7" y="25.5" /><rect fill="#D4AA00" height="1.2" stroke="black" stroke-width="0.05" width="0.3" x="18.2" y="25.5" /><rect fill="#D4AA00" height="1.2" stroke="black" stroke-width="0.05" width="0.3" x="18.7" y="25.5" /><rect fill="#D4AA00" height="1.2" stroke="black" stroke-width="0.05" width="0.3" x="19.2" y="25.5" /><rect fill="#D4AA00" height="1.2" stroke="black" stroke-width="0.05" width="0.3" x="19.7" y="25.5" /><rect fill="#D4AA00" height="1.2" stroke="black" stroke-width="0.05" width="0.3" x="20.2" y="25.5" /><rect fill="#D4AA00" height="1.2" stroke="black" stroke-width="0.05" width="0.3" x="20.7" y="25.5" /><rect fill="#D4AA00" height="1.2" stroke="black" stroke-width="0.05" width="0.3" x="21.2" y="25.5" /><rect fill="#D4AA00" height="1.2" stroke="black" stroke-width="0.05" width="0.3" x="21.7" y="25.5" /><rect fill="#D4AA00" height="1.2" stroke="black" stroke-width="0.05" width="0.3" x="22.2" y="25.5" /><rect fill="#D4AA00" height="1.2" stroke="black" stroke-width="0.05" width="0.3" x="22.7" y="25.5" /><rect fill="#D4AA00" height="1.2" stroke="black" stroke-width="0.05" width="0.3" x="23.2" y="25.5" /><rect fill="#D4AA00" height="1.2" stroke="black" stroke-width="0.05" width="0.3" x="23.7" y="25.5" /><rect fill="#D4AA00" height="1.2" stroke="black" stroke-width="0.05" width="0.3" x="24.2" y="25.5" /><rect fill="#D4AA00" height="0.3" stroke="black" stroke-width="0.05" width="1.2" x="10" y="12.2" /><rect fill="#D4AA00" height="0.3" stroke="black" stroke-width="0.05" width="1.2" x="10" y="12.7" /><rect fill="#D4AA00" height="0.3" stroke="black" stroke-width="0.05" width="1.2" x="10" y="13.2" /><rect fill="#D4AA00" height="0.3" stroke="black" stroke-width="0.05" width="1.2" x="10" y="13.7" /><rect fill="#D4AA00" height="0.3" stroke="black" stroke-width="0.05" width="1.2" x="10" y="14.2" /><rect fill="#D4AA00" height="0.3" stroke="black" stroke-width="0.05" width="1.2" x="10" y="14.7" /><rect fill="#D4AA00" height="0.3" stroke="black" stroke-width="0.05" width="1.2" x="10" y="15.2" /><rect fill="#D4AA00" height="0.3" stroke="black" stroke-width="0.05" width="1.2" x="10" y="15.7" /><rect fill="#D4AA00" height="0.3" stroke="black" stroke-width="0.05" width="1.2" x="10" y="16.2" /><rect fill="#D4AA00" height="0.3" stroke="black" stroke-width="0.05" width="1.2" x="10" y="16.7" /><rect fill="#D4AA00" height="0.3" stroke="black" stroke-width="0.05" width="1.2" x="10" y="17.2" /><rect fill="#D4AA00" height="0.3" stroke="black" stroke-width="0.05" width="1.2" x="10" y="17.7" /><rect fill="#D4AA00" height="0.3" stroke="black" stroke-width="0.05" width="1.2" x="10" y="18.2" /><rect fill="#D4AA00" height="0.3" stroke="black" stroke-width="0.05" width="1.2" x="10" y="18.7" /><rect fill="#D4AA00" height="0.3" stroke="black" stroke-width="0.05" width="1.2" x="10" y="19.2" /><rect fill="#D4AA00" height="0.3" stroke="black" stroke-width="0.05" width="1.2" x="10" y="19.7" /><rect fill="#D4AA00" height="0.3" stroke="black" stroke-width="0.05" width="1.2" x="10" y="20.2" /><rect fill="#D4AA00" height="0.3" stroke="black" stroke-width="0.05" width="1.2" x="10" y="20.7" /><rect fill="#D4AA00" height="0.3" stroke="black" stroke-width="0.05" width="1.2" x="10" y="21.2" /><rect fill="#D4AA00" height="0.3" stroke="black" stroke-width="0.05" width="1.2" x="10" y="21.7" /><rect fill="#D4AA00" height="0.3" stroke="black" stroke-width="0.05" width="1.2" x="10" y="22.2" /><rect fill="#D4AA00" height="0.3" stroke="black" stroke-width="0.05" width="1.2" x="10" y="22.7" /><rect fill="#D4AA00" height="0.3" stroke="black" stroke-width="0.05" width="1.2" x="10" y="23.2" /><rect fill="#D4AA00" height="0.3" stroke="black" stroke-width="0.05" width="1.2" x="10" y="23.7" /><rect fill="#D4AA00" height="0.3" stroke="black" stroke-width="0.05" width="1.2" x="10" y="24.2" /><rect fill="#D4AA00" height="0.3" stroke="black" stroke-width="0.05" width="1.2" x="25.5" y="12.2" /><rect fill="#D4AA00" height="0.3" stroke="black" stroke-width="0.05" width="1.2" x="25.5" y="12.7" /><rect fill="#D4AA00" height="0.3" stroke="black" stroke-width="0.05" width="1.2" x="25.5" y="13.2" /><rect fill="#D4AA00" height="0.3" stroke="black" stroke-width="0.05" width="1.2" x="25.5" y="13.7" /><rect fill="#D4AA00" height="0.3" stroke="black" stroke-width="0.05" width="1.2" x="25.5" y="14.2" /><rect fill="#D4AA00" height="0.3" stroke="black" stroke-width="0.05" width="1.2" x="25.5" y="14.7" /><rect fill="#D4AA00" height="0.3" stroke="black" stroke-width="0.05" width="1.2" x="25.5" y="15.2" /><rect fill="#D4AA00" height="0.3" stroke="black" stroke-width="0.05" width="1.2" x="25.5" y="15.7" /><rect fill="#D4AA00" height="0.3" stroke="black" stroke-width="0.05" width="1.2" x="25.5" y="16.2" /><rect fill="#D4AA00" height="0.3" stroke="black" stroke-width="0.05" width="1.2" x="25.5" y="16.7" /><rect fill="#D4AA00" height="0.3" stroke="black" stroke-width="0.05" width="1.2" x="25.5" y="17.2" /><rect fill="#D4AA00" height="0.3" stroke="black" stroke-width="0.05" width="1.2" x="25.5" y="17.7" /><rect fill="#D4AA00" height="0.3" stroke="black" stroke-width="0.05" width="1.2" x="25.5" y="18.2" /><rect fill="#D4AA00" height="0.3" stroke="black" stroke-width="0.05" width="1.2" x="25.5" y="18.7" /><rect fill="#D4AA00" height="0.3" stroke="black" stroke-width="0.05" width="1.2" x="25.5" y="19.2" /><rect fill="#D4AA00" height="0.3" stroke="black" stroke-width="0.05" width="1.2" x="25.5" y="19.7" /><rect fill="#D4AA00" height="0.3" stroke="black" stroke-width="0.05" width="1.2" x="25.5" y="20.2" /><rect fill="#D4AA00" height="0.3" stroke="black" stroke-width="0.05" width="1.2" x="25.5" y="20.7" /><rect fill="#D4AA00" height="0.3" stroke="black" stroke-width="0.05" width="1.2" x="25.5" y="21.2" /><rect fill="#D4AA00" height="0.3" stroke="black" stroke-width="0.05" width="1.2" x="25.5" y="21.7" /><rect fill="#D4AA00" height="0.3" stroke="black" stroke-width="0.05" width="1.2" x="25.5" y="22.2" /><rect fill="#D4AA00" height="0.3" stroke="black" stroke-width="0.05" width="1.2" x="25.5" y="22.7" /><rect fill="#D4AA00" height="0.3" stroke="black" stroke-width="0.05" width="1.2" x="25.5" y="23.2" /><rect fill="#D4AA00" height="0.3" stroke="black" stroke-width="0.05" width="1.2" x="25.5" y="23.7" /><rect fill="#D4AA00" height="0.3" stroke="black" stroke-width="0.05" width="1.2" x="25.5" y="24.2" /></g><g id="part"><rect fill="#999999" height="1.0" stroke="black" stroke-width="0.05" width="0.22" x="12.239999999999998" y="10.350000000000001" /><rect fill="#999999" height="1.0" stroke="black" stroke-width="0.05" width="0.22" x="12.739999999999998" y="10.350000000000001" /><rect fill="#999999" height="1.0" stroke="black" stroke-width="0.05" width="0.22" x="13.239999999999998" y="10.350000000000001" /><rect fill="#999999" height="1.0" stroke="black" stroke-width="0.05" width="0.22" x="13.739999999999998" y="10.350000000000001" /><rect fill="#999999" height="1.0" stroke="black" stroke-width="0.05" width="0.22" x="14.239999999999998" y="10.350000000000001" /><rect fill="#999999" height="1.0" stroke="black" stroke-width="0.05" width="0.22" x="14.739999999999998" y="10.350000000000001" /><rect fill="#999999" height="1.0" stroke="black" stroke-width="0.05" width="0.22" x="15.239999999999998" y="10.350000000000001" /><rect fill="#999999" height="1.0" stroke="black" stroke-width="0.05" width="0.22" x="15.739999999999998" y="10.350000000000001" /><rect fill="#999999" height="1.0" stroke="black" stroke-width="0.05" width="0.22" x="16.24" y="10.350000000000001" /><rect fill="#999999" height="1.0" stroke="black" stroke-width="0.05" width="0.22" x="16.74" y="10.350000000000001" /><rect fill="#999999" height="1.0" stroke="black" stroke-width="0.05" width="0.22" x="17.24" y="10.350000000000001" /><rect fill="#999999" height="1.0" stroke="black" stroke-width="0.05" width="0.22" x="17.74" y="10.350000000000001" /><rect fill="#999999" height="1.0" stroke="black" stroke-width="0.05" width="0.22" x="18.24" y="10.350000000000001" /><rect fill="#999999" height="1.0" stroke="black" stroke-width="0.05" width="0.22" x="18.74" y="10.350000000000001" /><rect fill="#999999" height="1.0" stroke="black" stroke-width="0.05" width="0.22" x="19.24" y="10.350000000000001" /><rect fill="#999999" height="1.0" stroke="black" stroke-width="0.05" width="0.22" x="19.74" y="10.350000000000001" /><rect fill="#999999" height="1.0" stroke="black" stroke-width="0.05" width="0.22" x="20.24" y="10.350000000000001" /><rect fill="#999999" height="1.0" stroke="black" stroke-width="0.05" width="0.22" x="20.74" y="10.350000000000001" /><rect fill="#999999" height="1.0" stroke="black" stroke-width="0.05" width="0.22" x="21.24" y="10.350000000000001" /><rect fill="#999999" height="1.0" stroke="black" stroke-width="0.05" width="0.22" x="21.74" y="10.350000000000001" /><rect fill="#999999" height="1.0" stroke="black" stroke-width="0.05" width="0.22" x="22.24" y="10.350000000000001" /><rect fill="#999999" height="1.0" stroke="black" stroke-width="0.05" width="0.22" x="22.74" y="10.350000000000001" /><rect fill="#999999" height="1.0" stroke="black" stroke-width="0.05" width="0.22" x="23.24" y="10.350000000000001" /><rect fill="#999999" height="1.0" stroke="black" stroke-width="0.05" width="0.22" x="23.74" y="10.350000000000001" /><rect fill="#999999" height="1.0" stroke="black" stroke-width="0.05" width="0.22" x="24.24" y="10.350000000000001" /><rect fill="#999999" height="1.0" stroke="black" stroke-width="0.05" width="0.22" x="12.239999999999998" y="25.35" /><rect fill="#999999" height="1.0" stroke="black" stroke-width="0.05" width="0.22" x="12.739999999999998" y="25.35" /><rect fill="#999999" height="1.0" stroke="black" stroke-width="0.05" width="0.22" x="13.239999999999998" y="25.35" /><rect fill="#999999" height="1.0" stroke="black" stroke-width="0.05" width="0.22" x="13.739999999999998" y="25.35" /><rect fill="#999999" height="1.0" stroke="black" stroke-width="0.05" width="0.22" x="14.239999999999998" y="25.35" /><rect fill="#999999" height="1.0" stroke="black" stroke-width="0.05" width="0.22" x="14.739999999999998" y="25.35" /><rect fill="#999999" height="1.0" stroke="black" stroke-width="0.05" width="0.22" x="15.239999999999998" y="25.35" /><rect fill="#999999" height="1.0" stroke="black" stroke-width="0.05" width="0.22" x="15.739999999999998" y="25.35" /><rect fill="#999999" height="1.0" stroke="black" stroke-width="0.05" width="0.22" x="16.24" y="25.35" /><rect fill="#999999" height="1.0" stroke="black" stroke-width="0.05" width="0.22" x="16.74" y="25.35" /><rect fill="#999999" height="1.0" stroke="black" stroke-width="0.05" width="0.22" x="17.24" y="25.35" /><rect fill="#999999" height="1.0" stroke="black" stroke-width="0.05" width="0.22" x="17.74" y="25.35" /><rect fill="#999999" height="1.0" stroke="black" stroke-width="0.05" width="0.22" x="18.24" y="25.35" /><rect fill="#999999" height="1.0" stroke="black" stroke-width="0.05" width="0.22" x="18.74" y="25.35" /><rect fill="#999999" height="1.0" stroke="black" stroke-width="0.05" width="0.22" x="19.24" y="25.35" /><rect fill="#999999" height="1.0" stroke="black" stroke-width="0.05" width="0.22" x="19.74" y="25.35" /><rect fill="#999999" height="1.0" stroke="black" stroke-width="0.05" width="0.22" x="20.24" y="25.35" /><rect fill="#999999" height="1.0" stroke="black" stroke-width="0.05" width="0.22" x="20.74" y="25.35" /><rect fill="#999999" height="1.0" stroke="black" stroke-width="0.05" width="0.22" x="21.24" y="25.35" /><rect fill="#999999" height="1.0" stroke="black" stroke-width="0.05" width="0.22" x="21.74" y="25.35" /><rect fill="#999999" height="1.0" stroke="black" stroke-width="0.05" width="0.22" x="22.24" y="25.35" /><rect fill="#999999" height="1.0" stroke="black" stroke-width="0.05" width="0.22" x="22.74" y="25.35" /><rect fill="#999999" height="1.0" stroke="black" stroke-width="0.05" width="0.22" x="23.24" y="25.35" /><rect fill="#999999" height="1.0" stroke="black" stroke-width="0.05" width="0.22" x="23.74" y="25.35" /><rect fill="#999999" height="1.0" stroke="black" stroke-width="0.05" width="0.22" x="24.24" y="25.35" /><rect fill="#999999" height="0.22" stroke="black" stroke-width="0.05" width="1.0" x="10.350000000000001" y="12.239999999999998" /><rect fill="#999999" height="0.22" stroke="black" stroke-width="0.05" width="1.0" x="10.350000000000001" y="12.739999999999998" /><rect fill="#999999" height="0.22" stroke="black" stroke-width="0.05" width="1.0" x="10.350000000000001" y="13.239999999999998" /><rect fill="#999999" height="0.22" stroke="black" stroke-width="0.05" width="1.0" x="10.350000000000001" y="13.739999999999998" /><rect fill="#999999" height="0.22" stroke="black" stroke-width="0.05" width="1.0" x="10.350000000000001" y="14.239999999999998" /><rect fill="#999999" height="0.22" stroke="black" stroke-width="0.05" width="1.0" x="10.350000000000001" y="14.739999999999998" /><rect fill="#999999" height="0.22" stroke="black" stroke-width="0.05" width="1.0" x="10.350000000000001" y="15.239999999999998" /><rect fill="#999999" height="0.22" stroke="black" stroke-width="0.05" width="1.0" x="10.350000000000001" y="15.739999999999998" /><rect fill="#999999" height="0.22" stroke="black" stroke-width="0.05" width="1.0" x="10.350000000000001" y="16.24" /><rect fill="#999999" height="0.22" stroke="black" stroke-width="0.05" width="1.0" x="10.350000000000001" y="16.74" /><rect fill="#999999" height="0.22" stroke="black" stroke-width="0.05" width="1.0" x="10.350000000000001" y="17.24" /><rect fill="#999999" height="0.22" stroke="black" stroke-width="0.05" width="1.0" x="10.350000000000001" y="17.74" /><rect fill="#999999" height="0.22" stroke="black" stroke-width="0.05" width="1.0" x="10.350000000000001" y="18.24" /><rect fill="#999999" height="0.22" stroke="black" stroke-width="0.05" width="1.0" x="10.350000000000001" y="18.74" /><rect fill="#999999" height="0.22" stroke="black" stroke-width="0.05" width="1.0" x="10.350000000000001" y="19.24" /><rect fill="#999999" height="0.22" stroke="black" stroke-width="0.05" width="1.0" x="10.350000000000001" y="19.74" /><rect fill="#999999" height="0.22" stroke="black" stroke-width="0.05" width="1.0" x="10.350000000000001" y="20.24" /><rect fill="#999999" height="0.22" stroke="black" stroke-width="0.05" width="1.0" x="10.350000000000001" y="20.74" /><rect fill="#999999" height="0.22" stroke="black" stroke-width="0.05" width="1.0" x="10.350000000000001" y="21.24" /><rect fill="#999999" height="0.22" stroke="black" stroke-width="0.05" width="1.0" x="10.350000000000001" y="21.74" /><rect fill="#999999" height="0.22" stroke="black" stroke-width="0.05" width="1.0" x="10.350000000000001" y="22.24" /><rect fill="#999999" height="0.22" stroke="black" stroke-width="0.05" width="1.0" x="10.350000000000001" y="22.74" /><rect fill="#999999" height="0.22" stroke="black" stroke-width="0.05" width="1.0" x="10.350000000000001" y="23.24" /><rect fill="#999999" height="0.22" stroke="black" stroke-width="0.05" width="1.0" x="10.350000000000001" y="23.74" /><rect fill="#999999" height="0.22" stroke="black" stroke-width="0.05" width="1.0" x="10.350000000000001" y="24.24" /><rect fill="#999999" height="0.22" stroke="black" stroke-width="0.05" width="1.0" x="25.35" y="12.239999999999998" /><rect fill="#999999" height="0.22" stroke="black" stroke-width="0.05" width="1.0" x="25.35" y="12.739999999999998" /><rect fill="#999999" height="0.22" stroke="black" stroke-width="0.05" width="1.0" x="25.35" y="13.239999999999998" /><rect fill="#999999" height="0.22" stroke="black" stroke-width="0.05" width="1.0" x="25.35" y="13.739999999999998" /><rect fill="#999999" height="0.22" stroke="black" stroke-width="0.05" width="1.0" x="25.35" y="14.239999999999998" /><rect fill="#999999" height="0.22" stroke="black" stroke-width="0.05" width="1.0" x="25.35" y="14.739999999999998" /><rect fill="#999999" height="0.22" stroke="black" stroke-width="0.05" width="1.0" x="25.35" y="15.239999999999998" /><rect fill="#999999" height="0.22" stroke="black" stroke-width="0.05" width="1.0" x="25.35" y="15.739999999999998" /><rect fill="#999999" height="0.22" stroke="black" stroke-width="0.05" width="1.0" x="25.35" y="16.24" /><rect fill="#999999" height="0.22" stroke="black" stroke-width="0.05" width="1.0" x="25.35" y="16.74" /><rect fill="#999999" height="0.22" stroke="black" stroke-width="0.05" width="1.0" x="25.35" y="17.24" /><rect fill="#999999" height="0.22" stroke="black" stroke-width="0.05" width="1.0" x="25.35" y="17.74" /><rect fill="#999999" height="0.22" stroke="black" stroke-width="0.05" width="1.0" x="25.35" y="18.24" /><rect fill="#999999" height="0.22" stroke="black" stroke-width="0.05" width="1.0" x="25.35" y="18.74" /><rect fill="#999999" height="0.22" stroke="black" stroke-width="0.05" width="1.0" x="25.35" y="19.24" /><rect fill="#999999" height="0.22" stroke="black" stroke-width="0.05" width="1.0" x="25.35" y="19.74" /><rect fill="#999999" height="0.22" stroke="black" stroke-width="0.05" width="1.0" x="25.35" y="20.24" /><rect fill="#999999" height="0.22" stroke="black" stroke-width="0.05" width="1.0" x="25.35" y="20.74" /><rect fill="#999999" height="0.22" stroke="black" stroke-width="0.05" width="1.0" x="25.35" y="21.24" /><rect fill="#999999" height="0.22" stroke="black" stroke-width="0.05" width="1.0" x="25.35" y="21.74" /><rect fill="#999999" height="0.22" stroke="black" stroke-width="0.05" width="1.0" x="25.35" y="22.24" /><rect fill="#999999" height="0.22" stroke="black" stroke-width="0.05" width="1.0" x="25.35" y="22.74" /><rect fill="#999999" height="0.22" stroke="black" stroke-width="0.05" width="1.0" x="25.35" y="23.24" /><rect fill="#999999" height="0.22" stroke="black" stroke-width="0.05" width="1.0" x="25.35" y="23.74" /><rect fill="#999999" height="0.22" stroke="black" stroke-width="0.05" width="1.0" x="25.35" y="24.24" /><polygon fill="#333333" points="11.350000000000001,12.100000000000001 12.100000000000001,11.350000000000001 24.6,11.350000000000001 25.35,12.100000000000001 25.35,24.6 24.6,25.35 12.100000000000001,25.35 11.350000000000001,24.6" stroke="black" stroke-width="0.05" /><circle cx="12.350000000000001" cy="24.35" fill="#333333" r="0.5" stroke="black" stroke-width="0.05" /></g></svg>