<?xml version="1.0" encoding="utf-8" ?>
<svg baseProfile="full" height="27.5" version="1.1" width="27.5" xmlns="http://www.w3.org/2000/svg" xmlns:ev="http://www.w3.org/2001/xml-events" xmlns:xlink="http://www.w3.org/1999/xlink"><defs /><g id="pads"><rect fill="#D4AA00" height="0.7" stroke="black" stroke-width="0.05" width="0.25" x="10.875" y="10" /><rect fill="#D4AA00" height="0.7" stroke="black" stroke-width="0.05" width="0.25" x="11.375" y="10" /><rect fill="#D4AA00" height="0.7" stroke="black" stroke-width="0.05" width="0.25" x="11.875" y="10" /><rect fill="#D4AA00" height="0.7" stroke="black" stroke-width="0.05" width="0.25" x="12.375" y="10" /><rect fill="#D4AA00" height="0.7" stroke="black" stroke-width="0.05" width="0.25" x="12.875" y="10" /><rect fill="#D4AA00" height="0.7" stroke="black" stroke-width="0.05" width="0.25" x="13.375" y="10" /><rect fill="#D4AA00" height="0.7" stroke="black" stroke-width="0.05" width="0.25" x="13.875" y="10" /><rect fill="#D4AA00" height="0.7" stroke="black" stroke-width="0.05" width="0.25" x="14.375" y="10" /><rect fill="#D4AA00" height="0.7" stroke="black" stroke-width="0.05" width="0.25" x="14.875" y="10" /><rect fill="#D4AA00" height="0.7" stroke="black" stroke-width="0.05" width="0.25" x="15.375" y="10" /><rect fill="#D4AA00" height="0.7" stroke="black" stroke-width="0.05" width="0.25" x="15.875" y="10" /><rect fill="#D4AA00" height="0.7" stroke="black" stroke-width="0.05" width="0.25" x="16.375" y="10" /><rect fill="#D4AA00" height="0.7" stroke="black" stroke-width="0.05" width="0.25" x="10.875" y="16.8" /><rect fill="#D4AA00" height="0.7" stroke="black" stroke-width="0.05" width="0.25" x="11.375" y="16.8" /><rect fill="#D4AA00" height="0.7" stroke="black" stroke-width="0.05" width="0.25" x="11.875" y="16.8" /><rect fill="#D4AA00" height="0.7" stroke="black" stroke-width="0.05" width="0.25" x="12.375" y="16.8" /><rect fill="#D4AA00" height="0.7" stroke="black" stroke-width="0.05" width="0.25" x="12.875" y="16.8" /><rect fill="#D4AA00" height="0.7" stroke="black" stroke-width="0.05" width="0.25" x="13.375" y="16.8" /><rect fill="#D4AA00" height="0.7" stroke="black" stroke-width="0.05" width="0.25" x="13.875" y="16.8" /><rect fill="#D4AA00" height="0.7" stroke="black" stroke-width="0.05" width="0.25" x="14.375" y="16.8" /><rect fill="#D4AA00" height="0.7" stroke="black" stroke-width="0.05" width="0.25" x="14.875" y="16.8" /><rect fill="#D4AA00" height="0.7" stroke="black" stroke-width="0.05" width="0.25" x="15.375" y="16.8" /><rect fill="#D4AA00" height="0.7" stroke="black" stroke-width="0.05" width="0.25" x="15.875" y="16.8" /><rect fill="#D4AA00" height="0.7" stroke="black" stroke-width="0.05" width="0.25" x="16.375" y="16.8" /><rect fill="#D4AA00" height="0.25" stroke="black" stroke-width="0.05" width="0.7" x="10" y="10.875" /><rect fill="#D4AA00" height="0.25" stroke="black" stroke-width="0.05" width="0.7" x="10" y="11.375" /><rect fill="#D4AA00" height="0.25" stroke="black" stroke-width="0.05" width="0.7" x="10" y="11.875" /><rect fill="#D4AA00" height="0.25" stroke="black" stroke-width="0.05" width="0.7" x="10" y="12.375" /><rect fill="#D4AA00" height="0.25" stroke="black" stroke-width="0.05" width="0.7" x="10" y="12.875" /><rect fill="#D4AA00" height="0.25" stroke="black" stroke-width="0.05" width="0.7" x="10" y="13.375" /><rect fill="#D4AA00" height="0.25" stroke="black" stroke-width="0.05" width="0.7" x="10" y="13.875" /><rect fill="#D4AA00" height="0.25" stroke="black" stroke-width="0.05" width="0.7" x="10" y="14.375" /><rect fill="#D4AA00" height="0.25" stroke="black" stroke-width="0.05" width="0.7" x="10" y="14.875" /><rect fill="#D4AA00" height="0.25" stroke="black" stroke-width="0.05" width="0.7" x="10" y="15.375" /><rect fill="#D4AA00" height="0.25" stroke="black" stroke-width="0.05" width="0.7" x="10" y="15.875" /><rect fill="#D4AA00" height="0.25" stroke="black" stroke-width="0.05" width="0.7" x="10" y="16.375" /><rect fill="#D4AA00" height="0.25" stroke="black" stroke-width="0.05" width="0.7" x="16.8" y="10.875" /><rect fill="#D4AA00" height="0.25" stroke="black" stroke-width="0.05" width="0.7" x="16.8" y="11.375" /><rect fill="#D4AA00" height="0.25" stroke="black" stroke-width="0.05" width="0.7" x="16.8" y="11.875" /><rect fill="#D4AA00" height="0.25" stroke="black" stroke-width="0.05" width="0.7" x="16.8" y="12.375" /><rect fill="#D4AA00" height="0.25" stroke="black" stroke-width="0.05" width="0.7" x="16.8" y="12.875" /><rect fill="#D4AA00" height="0.25" stroke="black" stroke-width="0.05" width="0.7" x="16.8" y="13.375" /><rect fill="#D4AA00" height="0.25" stroke="black" stroke-width="0.05" width="0.7" x="16.8" y="13.875" /><rect fill="#D4AA00" height="0.25" stroke="black" stroke-width="0.05" width="0.7" x="16.8" y="14.375" /><rect fill="#D4AA00" height="0.25" stroke="black" stroke-width="0.05" width="0.7" x="16.8" y="14.875" /><rect fill="#D4AA00" height="0.25" stroke="black" stroke-width="0.05" width="0.7" x="16.8" y="15.375" /><rect fill="#D4AA00" height="0.25" stroke="black" stroke-width="0.05" width="0.7" x="16.8" y="15.875" /><rect fill="#D4AA00" height="0.25" stroke="black" stroke-width="0.05" width="0.7" x="16.8" y="16.375" /><rect fill="#D4AA00" height="5.15" stroke="black" stroke-width="0.05" width="5.15" x="11.175" y="11.175" /></g><g id="part"><rect fill="#333333" height="7.0" stroke="black" stroke-width="0.05" width="7.0" x="10.25" y="10.25" /><circle cx="10.75" cy="16.75" fill="#333333" r="0.2" stroke="black" stroke-width="0.05" /></g></svg>