<?xml version="1.0" encoding="utf-8" ?>
<svg baseProfile="full" height="24.5" version="1.1" width="24.5" xmlns="http://www.w3.org/2000/svg" xmlns:ev="http://www.w3.org/2001/xml-events" xmlns:xlink="http://www.w3.org/1999/xlink"><defs /><g id="pads"><rect fill="#D4AA00" height="0.7" stroke="black" stroke-width="0.05" width="0.25" x="11.125" y="10" /><rect fill="#D4AA00" height="0.7" stroke="black" stroke-width="0.05" width="0.25" x="11.625" y="10" /><rect fill="#D4AA00" height="0.7" stroke="black" stroke-width="0.05" width="0.25" x="12.125" y="10" /><rect fill="#D4AA00" height="0.7" stroke="black" stroke-width="0.05" width="0.25" x="12.625" y="10" /><rect fill="#D4AA00" height="0.7" stroke="black" stroke-width="0.05" width="0.25" x="13.125" y="10" /><rect fill="#D4AA00" height="0.7" stroke="black" stroke-width="0.05" width="0.25" x="11.125" y="13.8" /><rect fill="#D4AA00" height="0.7" stroke="black" stroke-width="0.05" width="0.25" x="11.625" y="13.8" /><rect fill="#D4AA00" height="0.7" stroke="black" stroke-width="0.05" width="0.25" x="12.125" y="13.8" /><rect fill="#D4AA00" height="0.7" stroke="black" stroke-width="0.05" width="0.25" x="12.625" y="13.8" /><rect fill="#D4AA00" height="0.7" stroke="black" stroke-width="0.05" width="0.25" x="13.125" y="13.8" /><rect fill="#D4AA00" height="0.25" stroke="black" stroke-width="0.05" width="0.7" x="10" y="11.125" /><rect fill="#D4AA00" height="0.25" stroke="black" stroke-width="0.05" width="0.7" x="10" y="11.625" /><rect fill="#D4AA00" height="0.25" stroke="black" stroke-width="0.05" width="0.7" x="10" y="12.125" /><rect fill="#D4AA00" height="0.25" stroke="black" stroke-width="0.05" width="0.7" x="10" y="12.625" /><rect fill="#D4AA00" height="0.25" stroke="black" stroke-width="0.05" width="0.7" x="10" y="13.125" /><rect fill="#D4AA00" height="0.25" stroke="black" stroke-width="0.05" width="0.7" x="13.8" y="11.125" /><rect fill="#D4AA00" height="0.25" stroke="black" stroke-width="0.05" width="0.7" x="13.8" y="11.625" /><rect fill="#D4AA00" height="0.25" stroke="black" stroke-width="0.05" width="0.7" x="13.8" y="12.125" /><rect fill="#D4AA00" height="0.25" stroke="black" stroke-width="0.05" width="0.7" x="13.8" y="12.625" /><rect fill="#D4AA00" height="0.25" stroke="black" stroke-width="0.05" width="0.7" x="13.8" y="13.125" /><rect fill="#D4AA00" height="2.45" stroke="black" stroke-width="0.05" width="2.45" x="11.025" y="11.025" /></g><g id="part"><rect fill="#333333" height="4.0" stroke="black" stroke-width="0.05" width="4.0" x="10.25" y="10.25" /><circle cx="10.75" cy="13.75" fill="#333333" r="0.2" stroke="black" stroke-width="0.05" /></g></svg>